<?xml version="1.0" encoding="UTF-8"?>
<svg version="1.1" xmlns="http://www.w3.org/2000/svg" width="400" height="266">
<path d="M0 0 C132 0 264 0 400 0 C400 87.78 400 175.56 400 266 C268 266 136 266 0 266 C0 178.22 0 90.44 0 0 Z " fill="#224384" transform="translate(0,0)"/>
<path d="M0 0 C132 0 264 0 400 0 C400 87.78 400 175.56 400 266 C268 266 136 266 0 266 C0 178.22 0 90.44 0 0 Z M8.5323 10.43501759 C6.18114674 14.37071345 6.44475095 18.01502569 6.4853363 22.52073669 C6.47491801 23.98452502 6.47491801 23.98452502 6.46428925 25.47788483 C6.4459525 28.75689016 6.45630236 32.03517744 6.46655273 35.31420898 C6.45949766 37.66134179 6.45075438 40.00847005 6.44044495 42.35559082 C6.41789518 48.73779175 6.42090383 55.11974535 6.42976642 61.50197101 C6.43551227 67.49821877 6.42584199 73.49443768 6.41747857 79.49067808 C6.40089543 92.09183065 6.40962347 104.69287129 6.42646415 117.29401714 C6.44116004 128.82353302 6.42653534 140.35278826 6.39769398 151.88227057 C6.36830363 163.71932971 6.35732671 175.55626855 6.36687618 187.39336258 C6.37195233 194.03956541 6.36954833 200.68560381 6.34908867 207.3317852 C6.33077415 213.58059076 6.33663905 219.82891088 6.36128807 226.07769012 C6.36630929 228.37348499 6.36277245 230.66931657 6.35013962 232.96508217 C6.33427835 236.09471102 6.34909573 239.22272782 6.37181091 242.35227966 C6.35997518 243.26492362 6.34813946 244.17756758 6.33594507 245.11786741 C6.34836711 245.9578874 6.36078915 246.79790739 6.37358761 247.66338253 C6.3738573 248.38534091 6.37412699 249.10729929 6.37440485 249.85113519 C7.37187695 253.27736491 9.24225375 254.81415113 12 257 C15.04611223 257.74148778 15.04611223 257.74148778 18.41093445 257.62641239 C19.71362935 257.63883443 21.01632425 257.65125647 22.35849476 257.66405493 C23.80239538 257.65255393 25.2462923 257.64058172 26.69018555 257.62818909 C28.22537153 257.63323364 29.76055164 257.64046178 31.29571819 257.64968723 C35.51635124 257.66864969 39.7364064 257.65635354 43.95702505 257.6389643 C48.50789063 257.6256145 53.0586703 257.64101878 57.60952759 257.65278625 C66.52544175 257.67118509 75.44113707 257.66263558 84.35704446 257.64469803 C91.60184543 257.63068405 98.84658692 257.62677664 106.09140015 257.6301403 C107.12171346 257.63061775 108.15202678 257.63109519 109.21356171 257.6315871 C111.3064894 257.63261341 113.39941708 257.63366877 115.49234474 257.63475286 C134.00763565 257.64332447 152.52282077 257.62662999 171.03808594 257.59692383 C189.01274052 257.56808533 206.98724269 257.5610023 224.96191406 257.57641602 C244.52551618 257.59316926 264.08904589 257.59722134 283.65264988 257.57970566 C285.73796653 257.57786123 287.82328319 257.5760265 289.90859985 257.57420158 C290.93467037 257.57328949 291.96074089 257.5723774 293.01790446 257.57143768 C300.25571295 257.56582682 307.49348615 257.56914457 314.73129272 257.57574654 C323.54932912 257.58347042 332.36721535 257.57676126 341.18522143 257.5515715 C345.68609285 257.53905448 350.18673023 257.53295652 354.68761063 257.54411316 C358.80565537 257.55412825 362.92323263 257.54575468 367.04122031 257.52253198 C368.53306669 257.51735773 370.0249547 257.51896138 371.51678312 257.52792663 C373.54085953 257.53908107 375.56503118 257.52332298 377.58906555 257.50615788 C378.71450429 257.50496639 379.83994303 257.50377491 380.99948597 257.50254732 C384.67910247 256.88625911 386.34588766 255.57007289 389 253 C390.72181967 249.55636066 390.14793647 245.58603191 390.14717102 241.79570007 C390.15268605 240.34672568 390.15268605 240.34672568 390.1583125 238.86847907 C390.1693813 235.61112595 390.17319857 232.35380469 390.17700195 229.09643555 C390.18326413 226.76930641 390.1899107 224.44217829 390.19691467 222.11505127 C390.21434587 215.7782627 390.22488193 209.44148168 390.2331202 203.10467505 C390.23826521 199.14904953 390.24434112 195.19342637 390.25063133 191.23780251 C390.26750324 180.28917451 390.28213874 169.34054861 390.28938007 158.3919096 C390.29129002 155.55009141 390.29321034 152.70827323 390.29516602 149.86645508 C390.29564976 149.16012193 390.2961335 148.45378879 390.2966319 147.72605161 C390.30493456 136.28052148 390.33027525 124.83509578 390.36274669 113.38961127 C390.39580108 101.64304279 390.41382734 89.89652742 390.41702431 78.14991218 C390.4193796 71.55285628 390.42840236 64.95596544 390.45348549 58.35895348 C390.47669423 52.15458607 390.48102839 45.95049324 390.47072411 39.74609375 C390.4702269 37.4664144 390.47660134 35.18672187 390.49028015 32.90708351 C390.50788675 29.7994733 390.50094796 26.6928605 390.48774719 23.58525085 C390.49871644 22.67902456 390.50968568 21.77279826 390.52098733 20.83911055 C390.48038697 16.89169636 390.25463042 14.48780353 388.40279484 10.94018364 C385.16587975 8.32647331 383.20789045 8.37375366 379.0675354 8.37181091 C378.37006364 8.36471653 377.67259188 8.35762214 376.95398462 8.35031277 C374.61671178 8.3327096 372.28109699 8.35084726 369.94384766 8.36889648 C368.26827741 8.3637584 366.59271255 8.35647796 364.91716003 8.34721375 C360.36528338 8.32867433 355.81399129 8.3416553 351.26213884 8.36130404 C346.49900144 8.3776764 341.73590148 8.36887937 336.9727478 8.36378479 C328.97132013 8.35926137 320.97012603 8.37514687 312.96875 8.40307617 C303.72100914 8.43510733 294.47369009 8.43512163 285.22591937 8.4178614 C276.32943668 8.40198895 267.43310848 8.40873592 258.53663254 8.42579842 C254.75125384 8.4326671 250.96599904 8.43163825 247.1806221 8.42425346 C242.72026766 8.41658395 238.2603922 8.42873841 233.8001194 8.45610237 C232.16429249 8.46298115 230.52842081 8.46308959 228.89259529 8.45588684 C226.65667547 8.4471774 224.42222875 8.46317105 222.18643188 8.4853363 C220.31100173 8.48954669 220.31100173 8.48954669 218.3976841 8.49384212 C213.05607152 9.28958982 209.30904856 12.19390277 205.9375 16.3125 C205.43863281 16.90933594 204.93976563 17.50617187 204.42578125 18.12109375 C202.97217619 19.97173012 202.97217619 19.97173012 201.79296875 21.97265625 C198.83353647 26.79286869 198.83353647 26.79286869 196.05078125 27.484375 C195.35339844 27.53078125 194.65601563 27.5771875 193.9375 27.625 C189.99628235 27.64615937 189.99628235 27.64615937 187.5 29.9375 C185.36462149 34.29723113 185.66665343 38.23129207 186 43 C185.030625 43.474375 184.06125 43.94875 183.0625 44.4375 C180.19522563 45.70193947 180.19522563 45.70193947 179 47 C178.58297878 49.9157691 178.58297878 49.9157691 179 53 C180.9600281 54.63676257 180.9600281 54.63676257 183 56 C183 57.32 183 58.64 183 60 C181.865625 60.37125 180.73125 60.7425 179.5625 61.125 C176.48908431 62.44307055 176.13862785 62.65707847 174.8125 65.9375 C175.04851956 69.7924861 176.22299551 70.47545047 179 73 C179 74.32 179 75.64 179 77 C178.34 77.45375 177.68 77.9075 177 78.375 C174.71751486 79.89296503 174.71751486 79.89296503 174.3125 82.875 C175.0983037 86.44683501 175.64340151 86.83540027 178.5 88.875 C179.65430177 89.60330945 180.81757573 90.31829621 182 91 C181.11659982 98.57200151 181.11659982 98.57200151 180.49072266 100.86938477 C179.63100928 104.6020806 179.81545476 108.3729024 179.8125 112.1875 C179.80025391 113.00025391 179.78800781 113.81300781 179.77539062 114.65039062 C179.7474309 126.36551567 183.01470013 137.51995018 190 147 C191.51866365 143.96267269 190.23541877 142.10347367 189.1875 138.9375 C184.55471022 124.25364035 182.62470218 109.86836966 188 95 C190.33215104 91.50177344 192.29519627 90.81298906 196 89 C197.39935013 86.20129973 197.25265405 84.09501208 197 81 C195.74882038 79.07994865 195.74882038 79.07994865 194 78 C193.34 78 192.68 78 192 78 C192 76.68 192 75.36 192 74 C192.78375 73.87625 193.5675 73.7525 194.375 73.625 C197.14057822 73.20882007 197.14057822 73.20882007 199 71 C199.58402133 68.58582128 199.58402133 68.58582128 199 66 C197.37373596 64.61767557 195.7074998 63.28062485 194 62 C194 61.01 194 60.02 194 59 C194.78375 58.71125 195.5675 58.4225 196.375 58.125 C199.09671632 57.15087746 199.09671632 57.15087746 201 55 C200.99077298 52.45286596 200.99077298 52.45286596 200 50 C198.03241727 48.63979849 198.03241727 48.63979849 196 48 C196.6875 46.125 196.6875 46.125 198 44 C199.65204456 43.29788106 201.31923769 42.63028587 203 42 C205.47157109 38.29264337 205.22699255 36.38852255 205 32 C204.5978125 30.7934375 204.5978125 30.7934375 204.1875 29.5625 C203.87644749 25.31144909 206.49427201 22.29048895 209 19 C209.97919739 17.97962141 210.97318917 16.97245026 212 16 C228.77548494 21.74054715 241.72687875 44.11317335 249.34301758 59.40087891 C253.14535371 67.36536533 256.05895654 75.3674646 258 84 C258.33644531 85.49466797 258.33644531 85.49466797 258.6796875 87.01953125 C262.82399859 109.13198565 260.83156673 133.50836816 248.07421875 152.4921875 C241.27808321 160.70898414 231.3519537 165.81735206 221 168 C219.50516811 168.02362037 218.0088969 167.99411996 216.515625 167.921875 C215.66226563 167.89609375 214.80890625 167.8703125 213.9296875 167.84375 C212.15821545 167.7817743 210.38722028 167.70391681 208.6171875 167.609375 C202.82124069 167.47013303 199.38517846 168.37606374 194.68261719 171.81738281 C190.82247072 174.53046312 186.5263226 174.53793308 182 174 C174.36771686 171.93318271 168.17819459 167.8118631 162 163 C161.236875 162.41476563 160.47375 161.82953125 159.6875 161.2265625 C146.66567927 150.51068919 138.37224496 134.58746671 136 118 C134.53393044 100.46080197 137.57089903 81.96929916 145 66 C145.64388672 64.53626953 145.64388672 64.53626953 146.30078125 63.04296875 C156.45257791 41.22375508 174.20437619 21.49729346 197 13 C200.97022524 11.8262716 204.94511495 10.83289531 209 10 C209 9.67 209 9.34 209 9 C183.25312523 8.90663095 157.50627577 8.83605722 131.7592659 8.79275131 C119.80494788 8.77211074 107.85073495 8.74396153 95.89648438 8.69824219 C85.47928192 8.65842026 75.06215555 8.63257807 64.6448791 8.62364602 C59.12706126 8.61842342 53.60946113 8.60611727 48.09171295 8.57707977 C42.90103283 8.54998412 37.71066066 8.54154318 32.51991653 8.54756927 C30.61231184 8.54646642 28.70469713 8.53847784 26.79715347 8.5231781 C24.19700883 8.50334155 21.59803422 8.50803732 18.99786377 8.51898193 C17.85972917 8.50150488 17.85972917 8.50150488 16.69860196 8.48367476 C13.50663022 8.52011211 11.30933236 8.82011696 8.5323 10.43501759 Z " fill="#FAFBFC" transform="translate(0,0)"/>
<path d="M0 0 C16.46949862 5.47995907 29.57393756 27.46502572 37.26953125 42.24609375 C41.56957735 50.87748035 44.87850604 59.56493473 47 69 C47.22429687 69.99644531 47.44859375 70.99289063 47.6796875 72.01953125 C51.83241038 94.17686774 49.82510772 118.50719504 37 137.49609375 C30.0840553 146.15453232 19.90253155 151.9373589 9 154 C7.00242998 154.11670586 5.00093724 154.17499414 3 154.1875 C1.96875 154.20167969 0.9375 154.21585938 -0.125 154.23046875 C-2.96545203 154.00276947 -4.59107948 153.46504061 -7 152 C-7 150.35 -7 148.7 -7 147 C-7.99 146.67 -8.98 146.34 -10 146 C-10.28875 145.175 -10.5775 144.35 -10.875 143.5 C-11.24625 142.675 -11.6175 141.85 -12 141 C-12.78375 140.855625 -13.5675 140.71125 -14.375 140.5625 C-17 140 -17 140 -19.25 137.1875 C-20.7317246 134.48864448 -21.32411746 132.88926889 -22 130 C-22.63850628 127.93521995 -23.28514805 125.87294749 -23.9375 123.8125 C-24.62941801 121.54300892 -25.31724151 119.27226344 -26 117 C-26.23332031 116.24460937 -26.46664062 115.48921875 -26.70703125 114.7109375 C-29.64044119 103.77923713 -29.07937262 90.54257614 -25 80 C-22.71595159 76.42227647 -20.9543112 75.4568515 -17 74 C-15.58558126 71.17116253 -15.68099668 69.12623255 -16 66 C-17.9600281 64.36323743 -17.9600281 64.36323743 -20 63 C-20 61.68 -20 60.36 -20 59 C-19.195625 58.690625 -18.39125 58.38125 -17.5625 58.0625 C-15.10919595 57.23664655 -15.10919595 57.23664655 -14 56 C-13.49864801 53.62778044 -13.49864801 53.62778044 -14 51 C-16.39859044 48.66369252 -16.39859044 48.66369252 -19 47 C-18.8125 45.125 -18.8125 45.125 -18 43 C-17.175 42.690625 -16.35 42.38125 -15.5 42.0625 C-14.675 41.711875 -13.85 41.36125 -13 41 C-12.10613836 38.45224694 -12.10613836 38.45224694 -12 36 C-13.32 35.01 -14.64 34.02 -16 33 C-15.875 31.1875 -15.875 31.1875 -15 29 C-13.03384339 27.9349985 -11.03273074 26.93166826 -9 26 C-7.50061801 23.00123602 -7.88753952 20.31758417 -8 17 C-8.268125 16.195625 -8.53625 15.39125 -8.8125 14.5625 C-9.12616738 10.27571244 -6.51077756 7.32227196 -4 4 C-1.6875 1.5 -1.6875 1.5 0 0 Z " fill="#F4D998" transform="translate(212,15)"/>
<path d="M0 0 C21.32046433 -1.87432653 21.32046433 -1.87432653 26.03759766 1.42529297 C29.31350108 5.13718719 31.30995744 9.45790703 33.16845703 14.01220703 C34.25616282 16.61235398 35.66630526 18.96756071 37.125 21.375 C39 24.72413793 39 24.72413793 39 27 C39.66 27 40.32 27 41 27 C42.02631315 24.50109977 42.99337399 22.02070416 43.81706429 19.44693565 C46.46925216 11.5788032 50.03313022 4.78591802 57 0 C69.37238732 -4.53937906 84.68662841 -2.61718662 97.59375906 -2.23066664 C102.99298403 -2.09239709 108.39252124 -2.08015923 113.79324341 -2.05410767 C124.00216806 -1.98593452 134.2058615 -1.80571791 144.41249001 -1.58441889 C156.03942056 -1.33784081 167.66661164 -1.21739202 179.2955091 -1.10711932 C203.20056794 -0.87763104 227.09846229 -0.47448703 251 0 C251 12.21 251 24.42 251 37 C189.95 37 128.9 37 66 37 C66 27.43 66 17.86 66 8 C65.34 8 64.68 8 64 8 C63.83854492 8.80872559 63.83854492 8.80872559 63.67382812 9.63378906 C60.92011459 19.30371356 53.88647635 32.46678379 45.89941406 38.61767578 C42.33733508 40.35019471 39.2397004 40.6440343 35.38671875 39.73828125 C24.99797058 34.87230743 18.92169917 18.65860363 14 9 C13.67 18.24 13.34 27.48 13 37 C8.71 37 4.42 37 0 37 C0 24.79 0 12.58 0 0 Z " fill="#F7F8FA" transform="translate(118,197)"/>
<path d="M0 0 C16.46949862 5.47995907 29.57393756 27.46502572 37.26953125 42.24609375 C41.56957735 50.87748035 44.87850604 59.56493473 47 69 C47.22429687 69.99644531 47.44859375 70.99289063 47.6796875 72.01953125 C51.83241038 94.17686774 49.82510772 118.50719504 37 137.49609375 C30.03745029 146.21287962 19.92789272 151.82349025 9 154 C6.66699067 154.03888349 4.33290199 154.0448635 2 154 C2.33 153.34 2.66 152.68 3 152 C4.134375 151.773125 5.26875 151.54625 6.4375 151.3125 C11.33995137 150.23678225 14.69220346 147.59943479 18.60546875 144.55859375 C21.13286079 142.91352128 23.03343788 142.38465193 26 142 C26.33 141.01 26.66 140.02 27 139 C27.66 139 28.32 139 29 139 C28.16666667 136.83333333 28.16666667 136.83333333 26 136 C26.928125 135.4225 27.85625 134.845 28.8125 134.25 C31.63145447 132.26014978 33.04562867 130.73611987 35 128 C35.66 128 36.32 128 37 128 C37.103125 127.46375 37.20625 126.9275 37.3125 126.375 C38 124 38 124 39.375 121.5 C41.34055664 117.26649338 42.3134094 113.04945244 43.3515625 108.51171875 C44 106 44 106 45 105 C45.24454338 100.58636254 45.22861894 96.16674388 45.24023438 91.74707031 C45.24984045 89.53671179 45.28079926 87.32732349 45.3125 85.1171875 C45.37616015 76.67767097 44.82729122 69.52092867 40.92578125 61.90234375 C39.8708793 59.73467603 39.58359563 57.8828259 39.25 55.5 C37.33404921 45.15386574 31.45451883 35.26815586 24 28 C23.505 27.278125 23.01 26.55625 22.5 25.8125 C20.60832911 23.526731 18.78527063 22.90333101 16 22 C16 21.34 16 20.68 16 20 C14.68 20.33 13.36 20.66 12 21 C11.9175 22.216875 11.835 23.43375 11.75 24.6875 C11.1959087 28.88381811 10.13927164 31.02171665 7 34 C2.12545936 37.66997748 -3.09852697 40.00181136 -8.80078125 42.10546875 C-11.22740004 43.00691974 -11.22740004 43.00691974 -14 45 C-13.71125 45.721875 -13.4225 46.44375 -13.125 47.1875 C-12.08333333 49.79166667 -11.04166667 52.39583333 -10 55 C-10.33 55.33 -10.66 55.66 -11 56 C-9.68 56.66 -8.36 57.32 -7 58 C-8.32 58.66 -9.64 59.32 -11 60 C-11 59.34 -11 58.68 -11 58 C-12.98 58.99 -14.96 59.98 -17 61 C-16.01 61.66 -15.02 62.32 -14 63 C-12.79980429 67.80078283 -12.42842675 69.83486991 -14.625 74.3125 C-17 77 -17 77 -19.5625 78.25 C-22.91473714 80.65673436 -23.49903859 82.88196336 -24.4921875 86.8203125 C-26.27029148 97.95397897 -25.14394641 108.3535518 -22.33569336 119.19921875 C-20.91071535 124.73214605 -20.91071535 124.73214605 -22 128 C-27.9951346 112.4301116 -31.25131659 96.15566592 -25 80 C-22.71595159 76.42227647 -20.9543112 75.4568515 -17 74 C-15.58558126 71.17116253 -15.68099668 69.12623255 -16 66 C-17.9600281 64.36323743 -17.9600281 64.36323743 -20 63 C-20 61.68 -20 60.36 -20 59 C-19.195625 58.690625 -18.39125 58.38125 -17.5625 58.0625 C-15.10919595 57.23664655 -15.10919595 57.23664655 -14 56 C-13.49864801 53.62778044 -13.49864801 53.62778044 -14 51 C-16.39859044 48.66369252 -16.39859044 48.66369252 -19 47 C-18.8125 45.125 -18.8125 45.125 -18 43 C-17.175 42.690625 -16.35 42.38125 -15.5 42.0625 C-14.675 41.711875 -13.85 41.36125 -13 41 C-12.10613836 38.45224694 -12.10613836 38.45224694 -12 36 C-13.32 35.01 -14.64 34.02 -16 33 C-15.875 31.1875 -15.875 31.1875 -15 29 C-13.03384339 27.9349985 -11.03273074 26.93166826 -9 26 C-7.50061801 23.00123602 -7.88753952 20.31758417 -8 17 C-8.268125 16.195625 -8.53625 15.39125 -8.8125 14.5625 C-9.12616738 10.27571244 -6.51077756 7.32227196 -4 4 C-1.6875 1.5 -1.6875 1.5 0 0 Z " fill="#ECC151" transform="translate(212,15)"/>
<path d="M0 0 C2.75 2.5625 2.75 2.5625 4 5 C4 5.99 4 6.98 4 8 C1.41554227 8.1081866 -1.16437352 8.18737237 -3.75 8.25 C-4.47960937 8.28351563 -5.20921875 8.31703125 -5.9609375 8.3515625 C-8.109375 8.390625 -8.109375 8.390625 -12 8 C-13.33595027 6.66928875 -14.66925817 5.33591981 -16 4 C-18.94832459 3.5982243 -21.43889104 3.43946167 -24.375 3.5 C-25.1175 3.48453125 -25.86 3.4690625 -26.625 3.453125 C-31.84219758 3.48999565 -34.86803999 4.57162451 -39 8 C-40.74008654 11.48017308 -40.58464868 15.20306815 -40 19 C-37.16027372 22.81334672 -34.49944493 24.63928077 -30 26 C-26.89064073 26.23364707 -23.80328939 26.18893885 -20.6875 26.125 C-19.43356445 26.11146484 -19.43356445 26.11146484 -18.15429688 26.09765625 C-16.10274031 26.07420989 -14.05133223 26.03834266 -12 26 C-11.67 24.02 -11.34 22.04 -11 20 C-15.95 20 -20.9 20 -26 20 C-26 17.69 -26 15.38 -26 13 C-16.43 13 -6.86 13 3 13 C3 19.6 3 26.2 3 33 C-5.06361306 33.95631085 -13.00848596 34.18319644 -21.125 34.1875 C-22.34832031 34.19974609 -23.57164063 34.21199219 -24.83203125 34.22460938 C-34.68450648 34.24058636 -43.33310321 32.99882039 -52 28 C-56.99041567 22.76006355 -57.36232615 19.04131673 -57.26953125 11.98046875 C-56.89896386 7.88274528 -55.87153109 5.94331936 -53 3 C-40.23988006 -7.07823632 -14.0523435 -8.26608441 0 0 Z " fill="#F9F9FB" transform="translate(86,201)"/>
<path d="M0 0 C0.66 0.33 1.32 0.66 2 1 C1.67 3.31 1.34 5.62 1 8 C1.99 8.33 2.98 8.66 4 9 C4.36305732 15.29299363 4.36305732 15.29299363 2.8125 18.3125 C0.69924617 20.28001218 -1.33664052 20.94867389 -4 22 C-4.33 22.99 -4.66 23.98 -5 25 C-4.360625 25.226875 -3.72125 25.45375 -3.0625 25.6875 C-1 27 -1 27 -0.0625 29.4375 C0 32 0 32 -1.1875 33.75 C-3.13676576 35.09432121 -4.68001641 35.60000283 -7 36 C-7 36.99 -7 37.98 -7 39 C-6.175 39.61875 -5.35 40.2375 -4.5 40.875 C-2 43 -2 43 -1.5 45.5625 C-2.08275626 48.40343678 -2.60829628 49.37705819 -5 51 C-6.32 51 -7.64 51 -9 51 C-9 52.32 -9 53.64 -9 55 C-8.360625 55.309375 -7.72125 55.61875 -7.0625 55.9375 C-5 57 -5 57 -4 58 C-3.60029689 61.59732795 -3.4882273 63.34200653 -5.75 66.25 C-8 68 -8 68 -10.03515625 68.83984375 C-12.58795605 70.34716292 -12.87094514 71.50411767 -13.6875 74.3125 C-13.91824219 75.07175781 -14.14898437 75.83101563 -14.38671875 76.61328125 C-17.86134673 90.13555958 -15.95861448 101.94563774 -12 115 C-11.2760408 117.99130395 -10.63407947 120.98812253 -10 124 C-12.62714298 121.65625145 -14.03210328 119.28174307 -15.5625 116.125 C-16.18318359 114.86042969 -16.18318359 114.86042969 -16.81640625 113.5703125 C-20.50283516 105.56480022 -21.18060948 98.22339869 -21.1875 89.5 C-21.19974609 88.68402344 -21.21199219 87.86804688 -21.22460938 87.02734375 C-21.23685587 81.9409649 -20.60814647 77.82443942 -19 73 C-18.24914894 70.41263295 -18.24914894 70.41263295 -19 68 C-20.59092146 66.73675978 -20.59092146 66.73675978 -22.5 65.5625 C-25.9200521 63.36339957 -25.9200521 63.36339957 -26.6875 59.875 C-26 57 -26 57 -24 55.125 C-23.34 54.75375 -22.68 54.3825 -22 54 C-22.41166617 50.33752797 -22.41166617 50.33752797 -24.625 47.5625 C-26 46 -26 46 -26.125 43 C-25 40 -25 40 -23.36328125 38.9453125 C-21.61367222 38.20004293 -19.80739411 37.5915108 -18 37 C-18.27034634 34.56282742 -18.27034634 34.56282742 -19 32 C-19.99 31.34 -20.98 30.68 -22 30 C-22.5 27.0625 -22.5 27.0625 -22 24 C-19.625 22.1875 -19.625 22.1875 -17 21 C-16.34 20.67 -15.68 20.34 -15 20 C-15.04640625 19.33613281 -15.0928125 18.67226563 -15.140625 17.98828125 C-15.31354506 13.75791556 -15.38672555 10.78956467 -13.5 6.9375 C-10.87869943 4.90599206 -10.09092954 4.7162562 -6.9375 4.4375 C-2.98375885 4.42114379 -2.98375885 4.42114379 -1 1.9375 C-0.67 1.298125 -0.34 0.65875 0 0 Z " fill="#224385" transform="translate(201,23)"/>
<path d="M0 0 C4.04022792 1.80070083 6.41677143 4.19806072 9 7.75 C10.76515096 13.48674063 9.99203972 18.08678054 7.25 23.375 C4.39151691 26.70989694 2.33397549 28.64990368 -2.109375 29.31640625 C-7.59114489 29.60153187 -10.68101367 28.59915527 -15 25 C-15.598125 24.54625 -16.19625 24.0925 -16.8125 23.625 C-18 22 -18 22 -19 16 C-45.07 16 -71.14 16 -98 16 C-98 15.01 -98 14.02 -98 13 C-71.93 13 -45.86 13 -19 13 C-18.67 11.02 -18.34 9.04 -18 7 C-13.45848762 0.57310781 -7.63805779 -1.76645636 0 0 Z " fill="#EFC764" transform="translate(343,24)"/>
<path d="M0 0 C3.03532016 2.11899709 4.84553318 3.86790915 6.92578125 6.98828125 C6.92578125 8.63828125 6.92578125 10.28828125 6.92578125 11.98828125 C33.32578125 11.98828125 59.72578125 11.98828125 86.92578125 11.98828125 C86.92578125 12.97828125 86.92578125 13.96828125 86.92578125 14.98828125 C60.52578125 14.98828125 34.12578125 14.98828125 6.92578125 14.98828125 C6.59578125 16.96828125 6.26578125 18.94828125 5.92578125 20.98828125 C0.20240489 27.61534862 0.20240489 27.61534862 -4.125 28.32421875 C-10.64661692 28.43685462 -13.91811896 26.70905693 -18.88671875 22.42578125 C-21.65952944 19.06922094 -21.58078711 14.7939874 -21.5625 10.63671875 C-20.70293787 5.97445376 -17.66024583 2.92928419 -14.07421875 -0.01171875 C-9.42114501 -1.56274333 -4.53687259 -2.21290019 0 0 Z " fill="#EFCA6C" transform="translate(65.07421875,25.01171875)"/>
<path d="M0 0 C3.96363665 1.33573103 7.08252952 3.05385856 10 6.0625 C12.02308597 12.00531503 12.04405523 17.83455212 9.3125 23.5 C5.52250341 27.59729361 2.75757111 29.1814415 -2.8125 29.625 C-8.01955156 29.46910025 -10.72334973 27.54022661 -14.50390625 24.1171875 C-16 22 -16 22 -17 16 C-38.45 16 -59.9 16 -82 16 C-82 15.01 -82 14.02 -82 13 C-60.55 13 -39.1 13 -17 13 C-16.67 11.02 -16.34 9.04 -16 7 C-14.44140625 5.13671875 -14.44140625 5.13671875 -12.5625 3.6875 C-11.94503906 3.19636719 -11.32757813 2.70523438 -10.69140625 2.19921875 C-7.05372533 -0.37992222 -4.4487348 -0.35876894 0 0 Z " fill="#EDC255" transform="translate(341,131)"/>
<path d="M0 0 C5.35755096 1.92063148 8.45837216 4.91674432 11 10 C11.40399154 15.25189007 10.88990343 18.56881474 8 23 C4.27262954 26.77829082 1.05584251 28.80605259 -4.3125 29.3125 C-8.7654615 28.93513038 -10.60424213 27.86752887 -14 25 C-18 19.84210526 -18 19.84210526 -18 16 C-38.13 16 -58.26 16 -79 16 C-79.33 15.01 -79.66 14.02 -80 13 C-59.54 13 -39.08 13 -18 13 C-17.67 11.02 -17.34 9.04 -17 7 C-11.7132231 0.87846885 -7.86577612 -0.86200286 0 0 Z " fill="#EEC55C" transform="translate(342,60)"/>
<path d="M0 0 C4.31256913 1.95809665 7.04809344 3.71007736 8.875 8.27734375 C8.875 9.59734375 8.875 10.91734375 8.875 12.27734375 C29.995 12.27734375 51.115 12.27734375 72.875 12.27734375 C72.875 13.26734375 72.875 14.25734375 72.875 15.27734375 C51.755 15.27734375 30.635 15.27734375 8.875 15.27734375 C8.545 17.25734375 8.215 19.23734375 7.875 21.27734375 C5.58717963 24.74851948 3.69145611 26.69693064 -0.125 28.27734375 C-4.62826151 29.14276646 -8.53156402 29.24952166 -12.51953125 26.81640625 C-16.38189429 23.51773943 -18.71455919 21.24914303 -19.43359375 16.04296875 C-19.68162673 11.20256761 -19.55573251 8.09101799 -16.375 4.27734375 C-11.74380006 -0.58775517 -6.580695 -2.23792017 0 0 Z " fill="#F2D387" transform="translate(63.125,131.72265625)"/>
<path d="M0 0 C4.45105918 3.00187712 6.38502512 5.60260048 7.6875 10.8125 C36.8925 11.3075 36.8925 11.3075 66.6875 11.8125 C66.6875 12.8025 66.6875 13.7925 66.6875 14.8125 C46.8875 14.8125 27.0875 14.8125 6.6875 14.8125 C6.3575 16.7925 6.0275 18.7725 5.6875 20.8125 C4.1640625 22.67578125 4.1640625 22.67578125 2.3125 24.125 C1.70664063 24.61613281 1.10078125 25.10726562 0.4765625 25.61328125 C-3.33305202 28.16688749 -6.85296622 28.19042659 -11.3125 27.8125 C-16.09173201 25.37602878 -18.98182175 22.65313945 -21.3125 17.8125 C-22.11820277 12.76452549 -21.88855128 8.9859378 -19.625 4.375 C-13.96004467 -1.90238294 -7.86175205 -2.81836394 0 0 Z " fill="#EDC358" transform="translate(65.3125,61.1875)"/>
<path d="M0 0 C3.19624773 2.41878207 5.51835651 5.16171302 7.3125 8.75 C7.71581428 13.99308569 7.17301133 17.31127553 4.3125 21.75 C-0.38020573 25.98488078 -3.18814489 27.04822322 -9.3671875 26.96875 C-13.61367179 26.56840805 -16.5229692 24.9145308 -19.5 21.9375 C-20.6875 19.75 -20.6875 19.75 -21.6875 13.75 C-40.4975 13.75 -59.3075 13.75 -78.6875 13.75 C-78.6875 13.09 -78.6875 12.43 -78.6875 11.75 C-59.8775 11.75 -41.0675 11.75 -21.6875 11.75 C-21.6875 10.1 -21.6875 8.45 -21.6875 6.75 C-16.36943735 -1.30767069 -9.14154537 -4.25188157 0 0 Z " fill="#EFC865" transform="translate(345.6875,97.25)"/>
<path d="M0 0 C4.31233186 2.3286592 7.25975554 4.94037857 10 9 C10.33 10.32 10.66 11.64 11 13 C28.16 13.33 45.32 13.66 63 14 C63 14.66 63 15.32 63 16 C45.51 16 28.02 16 10 16 C9.67 18.31 9.34 20.62 9 23 C6.91398235 25.71243111 4.05918508 27.47040746 1 29 C-3.9509132 29.54317573 -7.89488185 29.52241949 -12.4375 27.375 C-16.76240833 23.36654838 -18.16847204 19.81046375 -18.5 14 C-18.38147584 10.57310586 -18.01972717 8.31818678 -15.9375 5.5625 C-11.19274697 1.42346012 -6.36505218 -0.94798649 0 0 Z " fill="#EEC45B" transform="translate(62,95)"/>
<path d="M0 0 C1.12728516 -0.0309375 1.12728516 -0.0309375 2.27734375 -0.0625 C7.17276445 -0.09667397 10.52602699 0.5108175 14.75 3.25 C17.2415904 6.9873856 17.20793285 8.82331583 16.75 13.25 C14.3208109 17.29864849 12.17810607 18.83049366 7.75 20.25 C0.6037135 20.94653679 -6.01845745 21.04311286 -12.25 17.25 C-14.96247763 14.80002021 -15.218109 13.46925064 -15.75 9.8125 C-15.12507801 5.35993081 -13.68769674 4.03289736 -10.25 1.25 C-7.02630173 -0.36184913 -3.53811289 0.02378563 0 0 Z " fill="#214283" transform="translate(314.25,205.75)"/>
<path d="M0 0 C4.95 0 9.9 0 15 0 C15 11.88 15 23.76 15 36 C10.05 36 5.1 36 0 36 C0 24.12 0 12.24 0 0 Z " fill="#FEFEFE" transform="translate(96,198)"/>
<path d="M0 0 C8.5330511 -1.05563519 8.5330511 -1.05563519 13 0 C16.26533517 3.607367 18.088494 7.5589344 20 12 C20.33 12.33 20.66 12.66 21 13 C21.65742188 11.59234375 21.65742188 11.59234375 22.328125 10.15625 C24.25679216 6.37512915 26.16068452 3.18777692 29 0 C33.48317602 -1.20827061 36.30517574 -0.69355358 41 0 C41 6.27 41 12.54 41 19 C38.36 19 35.72 19 33 19 C32.505 13.06 32.505 13.06 32 7 C31.39865234 8.299375 31.39865234 8.299375 30.78515625 9.625 C29.05354519 13.01754411 27.39454366 16.03284807 25 19 C21.51999725 20.12329203 19.68430951 19.68018022 16 19 C12.04 12.07 12.04 12.07 8 5 C7.67 9.95 7.34 14.9 7 20 C4.69 20 2.38 20 0 20 C0 13.4 0 6.8 0 0 Z " fill="#204183" transform="translate(256,206)"/>
<path d="M0 0 C3.03532016 2.11899709 4.84553318 3.86790915 6.92578125 6.98828125 C6.92578125 8.63828125 6.92578125 10.28828125 6.92578125 11.98828125 C33.32578125 11.98828125 59.72578125 11.98828125 86.92578125 11.98828125 C86.92578125 12.97828125 86.92578125 13.96828125 86.92578125 14.98828125 C60.52578125 14.98828125 34.12578125 14.98828125 6.92578125 14.98828125 C6.59578125 16.96828125 6.26578125 18.94828125 5.92578125 20.98828125 C0.20240489 27.61534862 0.20240489 27.61534862 -4.125 28.32421875 C-10.64661692 28.43685462 -13.91811896 26.70905693 -18.88671875 22.42578125 C-21.65952944 19.06922094 -21.58078711 14.7939874 -21.5625 10.63671875 C-20.70293787 5.97445376 -17.66024583 2.92928419 -14.07421875 -0.01171875 C-9.42114501 -1.56274333 -4.53687259 -2.21290019 0 0 Z M-17.07421875 5.98828125 C-19.54408769 9.69308466 -19.74854323 12.69047826 -19.07421875 16.98828125 C-17.05918986 20.74040401 -15.61955733 22.6247222 -12.07421875 24.98828125 C-7.99958351 25.6545297 -3.83065172 25.93324219 -0.12109375 23.9375 C2.6712578 21.63990977 4.68983712 19.67359646 5.19921875 16.03515625 C5.38907168 11.74155926 5.36004805 8.89245161 2.55078125 5.48828125 C-1.50021544 1.63018917 -4.16717071 1.65223538 -9.59375 1.69921875 C-13.07383967 2.10477251 -14.74105936 3.43638817 -17.07421875 5.98828125 Z " fill="#EAECF2" transform="translate(65.07421875,25.01171875)"/>
<path d="M0 0 C4.04022792 1.80070083 6.41677143 4.19806072 9 7.75 C10.76515096 13.48674063 9.99203972 18.08678054 7.25 23.375 C4.39151691 26.70989694 2.33397549 28.64990368 -2.109375 29.31640625 C-7.59114489 29.60153187 -10.68101367 28.59915527 -15 25 C-15.598125 24.54625 -16.19625 24.0925 -16.8125 23.625 C-18 22 -18 22 -19 16 C-45.07 16 -71.14 16 -98 16 C-98 15.01 -98 14.02 -98 13 C-71.93 13 -45.86 13 -19 13 C-18.67 11.02 -18.34 9.04 -18 7 C-13.45848762 0.57310781 -7.63805779 -1.76645636 0 0 Z M-15.875 7.75 C-17.56976212 11.13952424 -17.64766071 14.33930905 -17 18 C-14.98497111 21.75212276 -13.54533858 23.63644095 -10 26 C-5.92536476 26.66624845 -1.75643297 26.94496094 1.953125 24.94921875 C4.73276851 22.66208489 6.72868569 20.68626992 7.30859375 17.08203125 C7.56093742 12.6392533 7.28130166 9.62757238 4.5625 6 C1.42824427 2.82128674 -1.39973166 1.89028772 -5.8203125 1.7265625 C-10.21740104 2.27816859 -12.76287981 4.84535449 -15.875 7.75 Z " fill="#EAEDF4" transform="translate(343,24)"/>
<path d="M0 0 C3.96363665 1.33573103 7.08252952 3.05385856 10 6.0625 C12.02308597 12.00531503 12.04405523 17.83455212 9.3125 23.5 C5.52250341 27.59729361 2.75757111 29.1814415 -2.8125 29.625 C-8.01955156 29.46910025 -10.72334973 27.54022661 -14.50390625 24.1171875 C-16 22 -16 22 -17 16 C-38.45 16 -59.9 16 -82 16 C-82 15.01 -82 14.02 -82 13 C-60.55 13 -39.1 13 -17 13 C-16.67 11.02 -16.34 9.04 -16 7 C-14.44140625 5.13671875 -14.44140625 5.13671875 -12.5625 3.6875 C-11.94503906 3.19636719 -11.32757813 2.70523438 -10.69140625 2.19921875 C-7.05372533 -0.37992222 -4.4487348 -0.35876894 0 0 Z M-13 7 C-15.52481154 10.48664451 -15.43474022 13.79751118 -15 18 C-12.95783305 21.79259576 -10.88219642 25.00344184 -7 27 C-1.99637932 27.54584953 1.02238851 27.11758738 5 24 C8.20317953 21.05653773 9.30460583 18.82491749 9.5625 14.5625 C9.35354964 9.55604929 7.56906895 7.39911328 4 4 C-1.78111351 1.10944325 -8.76766653 2.23862485 -13 7 Z " fill="#E9ECF2" transform="translate(341,131)"/>
<path d="M0 0 C4.49893212 0.56585947 6.4269116 2.49354442 9.25 5.9375 C10.50501596 7.73219827 11.73566303 9.54426386 12.9375 11.375 C13.93400517 12.71094732 14.93345468 14.04471027 15.9375 15.375 C17.9375 18.375 17.9375 18.375 17.9375 20.375 C11.8828125 20.5703125 11.8828125 20.5703125 9.9375 20.375 C9.2775 19.715 8.6175 19.055 7.9375 18.375 C5.0281442 18.22982256 2.217554 18.18869204 -0.6875 18.25 C-1.89019531 18.26353516 -1.89019531 18.26353516 -3.1171875 18.27734375 C-5.09908523 18.30093777 -7.08082981 18.33680935 -9.0625 18.375 C-9.3925 19.035 -9.7225 19.695 -10.0625 20.375 C-12.7025 20.375 -15.3425 20.375 -18.0625 20.375 C-16.80553572 17.97037268 -15.48360642 15.68477675 -14.0625 13.375 C-13.11310547 11.82232422 -13.11310547 11.82232422 -12.14453125 10.23828125 C-5.67913051 0.56878811 -5.67913051 0.56878811 0 0 Z " fill="#1A3B7F" transform="translate(348.0625,204.625)"/>
<path d="M0 0 C4.31256913 1.95809665 7.04809344 3.71007736 8.875 8.27734375 C8.875 9.59734375 8.875 10.91734375 8.875 12.27734375 C29.995 12.27734375 51.115 12.27734375 72.875 12.27734375 C72.875 13.26734375 72.875 14.25734375 72.875 15.27734375 C51.755 15.27734375 30.635 15.27734375 8.875 15.27734375 C8.545 17.25734375 8.215 19.23734375 7.875 21.27734375 C5.58717963 24.74851948 3.69145611 26.69693064 -0.125 28.27734375 C-4.62826151 29.14276646 -8.53156402 29.24952166 -12.51953125 26.81640625 C-16.38189429 23.51773943 -18.71455919 21.24914303 -19.43359375 16.04296875 C-19.68162673 11.20256761 -19.55573251 8.09101799 -16.375 4.27734375 C-11.74380006 -0.58775517 -6.580695 -2.23792017 0 0 Z M-15.125 6.27734375 C-17.50521995 10.06405731 -17.46929681 13.7323203 -16.85546875 18.05078125 C-15.52679966 22.10073516 -12.8331671 24.33497051 -9.125 26.27734375 C-5.20286345 26.88595115 -3.05158323 26.68676425 0.5625 25.08984375 C3.86826829 22.49883617 6.44034291 20.45465382 7.296875 16.1640625 C7.55342885 11.92379749 7.21936391 9.12611533 4.5 5.77734375 C0.45091745 1.92107465 -2.21829411 1.93345321 -7.64453125 1.99609375 C-11.19188108 2.39831294 -12.81218177 3.60314767 -15.125 6.27734375 Z " fill="#E9ECF2" transform="translate(63.125,131.72265625)"/>
<path d="M0 0 C5.35755096 1.92063148 8.45837216 4.91674432 11 10 C11.40399154 15.25189007 10.88990343 18.56881474 8 23 C4.27262954 26.77829082 1.05584251 28.80605259 -4.3125 29.3125 C-8.7654615 28.93513038 -10.60424213 27.86752887 -14 25 C-18 19.84210526 -18 19.84210526 -18 16 C-38.13 16 -58.26 16 -79 16 C-79.33 15.01 -79.66 14.02 -80 13 C-59.54 13 -39.08 13 -18 13 C-17.67 11.02 -17.34 9.04 -17 7 C-11.7132231 0.87846885 -7.86577612 -0.86200286 0 0 Z M-15 8 C-16.53597454 11.07194908 -16.2265038 13.60244293 -16 17 C-14.37749087 21.21852374 -12.83889018 23.63393447 -9 26 C-4.22846462 26.86120395 -0.20572876 26.70334178 4 24.25 C7.54830589 20.25815588 8.46377139 17.52367618 8.3203125 12.03125 C7.67779482 7.95674762 5.42857538 5.12245209 2.25 2.625 C-5.56474973 0.45423619 -9.73512776 2.10944729 -15 8 Z " fill="#DFE4ED" transform="translate(342,60)"/>
<path d="M0 0 C7.92 0 15.84 0 24 0 C24 1.32 24 2.64 24 4 C18.72 4 13.44 4 8 4 C8 4.99 8 5.98 8 7 C12.95 7 17.9 7 23 7 C23 8.65 23 10.3 23 12 C18.05 12 13.1 12 8 12 C8 12.99 8 13.98 8 15 C13.28 15 18.56 15 24 15 C24 16.65 24 18.3 24 20 C16.08 20 8.16 20 0 20 C0 13.4 0 6.8 0 0 Z " fill="#375590" transform="translate(230,206)"/>
<path d="M0 0 C4.45105918 3.00187712 6.38502512 5.60260048 7.6875 10.8125 C36.8925 11.3075 36.8925 11.3075 66.6875 11.8125 C66.6875 12.8025 66.6875 13.7925 66.6875 14.8125 C46.8875 14.8125 27.0875 14.8125 6.6875 14.8125 C6.3575 16.7925 6.0275 18.7725 5.6875 20.8125 C4.1640625 22.67578125 4.1640625 22.67578125 2.3125 24.125 C1.70664063 24.61613281 1.10078125 25.10726562 0.4765625 25.61328125 C-3.33305202 28.16688749 -6.85296622 28.19042659 -11.3125 27.8125 C-16.09173201 25.37602878 -18.98182175 22.65313945 -21.3125 17.8125 C-22.11820277 12.76452549 -21.88855128 8.9859378 -19.625 4.375 C-13.96004467 -1.90238294 -7.86175205 -2.81836394 0 0 Z M-18.3125 6.8125 C-19.91882723 10.02515446 -19.79181944 13.32771812 -19.3125 16.8125 C-17.29747111 20.56462276 -15.85783858 22.44894095 -12.3125 24.8125 C-7.51560209 25.51170885 -3.53790718 25.52732085 0.6875 23.0625 C4.23580589 19.07065588 5.15127139 16.33617618 5.0078125 10.84375 C4.36529482 6.76924762 2.11607538 3.93495209 -1.0625 1.4375 C-8.87724973 -0.73326381 -13.04762776 0.92194729 -18.3125 6.8125 Z " fill="#DFE4ED" transform="translate(65.3125,61.1875)"/>
<path d="M0 0 C0.33 0 0.66 0 1 0 C1.24521302 4.60314192 1.45932874 9.20640729 1.64697266 13.81225586 C1.71466427 15.37285228 1.79027014 16.93312933 1.87451172 18.49291992 C2.74864816 34.87507935 -0.80258793 47.60373812 -10.25 61.25 C-18.2855863 69.2855863 -29.12528072 75.86875468 -40.75 76.0625 C-41.8225 76.041875 -42.895 76.02125 -44 76 C-43.505 75.01 -43.505 75.01 -43 74 C-41.865625 73.773125 -40.73125 73.54625 -39.5625 73.3125 C-34.66004863 72.23678225 -31.30779654 69.59943479 -27.39453125 66.55859375 C-24.86713921 64.91352128 -22.96656212 64.38465193 -20 64 C-19.67 63.01 -19.34 62.02 -19 61 C-18.34 61 -17.68 61 -17 61 C-17.83333333 58.83333333 -17.83333333 58.83333333 -20 58 C-18.6078125 57.13375 -18.6078125 57.13375 -17.1875 56.25 C-14.36854553 54.26014978 -12.95437133 52.73611987 -11 50 C-10.34 50 -9.68 50 -9 50 C-8.896875 49.46375 -8.79375 48.9275 -8.6875 48.375 C-8 46 -8 46 -6.625 43.5 C-4.65944336 39.26649338 -3.6865906 35.04945244 -2.6484375 30.51171875 C-2 28 -2 28 -1 27 C-0.84174742 25.00217874 -0.74880829 22.99911166 -0.68359375 20.99609375 C-0.62075195 19.17368164 -0.62075195 19.17368164 -0.55664062 17.31445312 C-0.51732422 16.03505859 -0.47800781 14.75566406 -0.4375 13.4375 C-0.37272461 11.51260742 -0.37272461 11.51260742 -0.30664062 9.54882812 C-0.200152 6.36600147 -0.09814038 3.18309326 0 0 Z " fill="#EEC96C" transform="translate(258,93)"/>
<path d="M0 0 C2.64 0 5.28 0 8 0 C8.07347656 1.37285156 8.07347656 1.37285156 8.1484375 2.7734375 C8.22320312 3.96195313 8.29796875 5.15046875 8.375 6.375 C8.44460937 7.55835938 8.51421875 8.74171875 8.5859375 9.9609375 C8.70217346 13.10562319 8.70217346 13.10562319 11 15 C15.33643601 15.31537716 17.32653229 15.44897847 21 13 C21.58592634 9.88389446 21.58592634 9.88389446 21.6875 6.375 C21.75324219 5.18648437 21.81898438 3.99796875 21.88671875 2.7734375 C21.92410156 1.85820312 21.96148437 0.94296875 22 0 C24.64 0 27.28 0 30 0 C30.10864945 2.06132142 30.18588321 4.12431321 30.25 6.1875 C30.29640625 7.33605469 30.3428125 8.48460937 30.390625 9.66796875 C29.91690628 13.70878943 28.91715934 15.20686954 26 18 C20.24206238 21.20424859 13.37884624 20.6274275 7 20 C3.70898016 18.76732119 1.60839135 17.2167827 0 14 C-0.07116382 11.62597499 -0.08409085 9.24999323 -0.0625 6.875 C-0.05347656 5.59367188 -0.04445312 4.31234375 -0.03515625 2.9921875 C-0.02355469 2.00476563 -0.01195312 1.01734375 0 0 Z " fill="#234485" transform="translate(198,206)"/>
<path d="M0 0 C3.19624773 2.41878207 5.51835651 5.16171302 7.3125 8.75 C7.71581428 13.99308569 7.17301133 17.31127553 4.3125 21.75 C-0.38020573 25.98488078 -3.18814489 27.04822322 -9.3671875 26.96875 C-13.61367179 26.56840805 -16.5229692 24.9145308 -19.5 21.9375 C-20.6875 19.75 -20.6875 19.75 -21.6875 13.75 C-40.4975 13.75 -59.3075 13.75 -78.6875 13.75 C-78.6875 13.09 -78.6875 12.43 -78.6875 11.75 C-59.8775 11.75 -41.0675 11.75 -21.6875 11.75 C-21.6875 10.1 -21.6875 8.45 -21.6875 6.75 C-16.36943735 -1.30767069 -9.14154537 -4.25188157 0 0 Z M-18.6875 6.75 C-20.21964888 9.81429776 -19.91688548 12.3665642 -19.6875 15.75 C-17.87757928 19.84613637 -15.5515796 22.48195328 -11.6875 24.75 C-7.10049199 25.57566144 -3.78158193 25.40179349 0.25 23 C4.05869265 18.84506256 4.75472045 15.45634869 4.63671875 9.9375 C4.15077138 6.65881896 2.68287765 4.9849275 0.3125 2.75 C-6.92932435 -2.0778829 -13.34328349 0.61051318 -18.6875 6.75 Z " fill="#E5E6E4" transform="translate(345.6875,97.25)"/>
<path d="M0 0 C4.31233186 2.3286592 7.25975554 4.94037857 10 9 C10.33 10.32 10.66 11.64 11 13 C28.16 13.33 45.32 13.66 63 14 C63 14.66 63 15.32 63 16 C45.51 16 28.02 16 10 16 C9.67 18.31 9.34 20.62 9 23 C6.91398235 25.71243111 4.05918508 27.47040746 1 29 C-3.9509132 29.54317573 -7.89488185 29.52241949 -12.4375 27.375 C-16.76240833 23.36654838 -18.16847204 19.81046375 -18.5 14 C-18.38147584 10.57310586 -18.01972717 8.31818678 -15.9375 5.5625 C-11.19274697 1.42346012 -6.36505218 -0.94798649 0 0 Z M-14.8125 8.25 C-16.33107326 11.76669597 -16.40718483 14.19960827 -16 18 C-14.191879 22.09206332 -11.83654027 24.69807584 -8 27 C-3.08663491 27.62391938 -1.0272161 27.53263057 3.375 25.25 C6.40740352 22.65079698 7.72756275 20.77084213 8.3359375 16.81640625 C8.4059667 12.77572121 8.35885159 10.58158705 6.1875 7.0625 C2.08244466 3.19201925 -0.36213694 2.60924382 -5.78125 2.75 C-10.03664503 3.22948113 -12.19070662 4.99535994 -14.8125 8.25 Z " fill="#F1F0EC" transform="translate(62,95)"/>
<path d="M0 0 C4.87082672 3.78842078 6.08003289 7.66695372 7.828125 13.484375 C8.92752759 16.78258277 10.22401918 19.84384031 11.67407227 22.99560547 C16.59342178 33.68808634 18.14205409 42.85606723 18.3125 54.625 C18.33944946 55.94987427 18.33944946 55.94987427 18.36694336 57.30151367 C18.35799045 63.68851905 17.90480507 70.82686185 13.39575195 75.75244141 C12.70485474 76.36998291 12.70485474 76.36998291 12 77 C12.14154136 74.43719792 12.28808562 71.87484515 12.4375 69.3125 C12.47681641 68.59126953 12.51613281 67.87003906 12.55664062 67.12695312 C12.73228534 64.16801515 12.90917066 61.38814403 13.5859375 58.49609375 C14.19062455 54.85085766 13.66223464 51.38072268 13.1875 47.75 C13.04755615 46.61437622 13.04755615 46.61437622 12.90478516 45.45581055 C12.40048096 41.52485647 11.79205718 37.67205722 10.875 33.8125 C10.08632146 30.37611492 9.82027263 27.50468375 10 24 C9.34 24 8.68 24 8 24 C7.54427083 22.01432292 7.08854167 20.02864583 6.6328125 18.04296875 C6.01992277 15.72257026 6.01992277 15.72257026 4 13 C2.4471931 8.72978102 1.22446638 4.37309422 0 0 Z " fill="#FBF3DE" transform="translate(238,50)"/>
<path d="M0 0 C2.56972909 1.80714115 4.9258092 3.63026388 7 6 C7.1875 9.1875 7.1875 9.1875 6 12 C3.9375 13.875 3.9375 13.875 2 15 C2.28875 15.721875 2.5775 16.44375 2.875 17.1875 C3.91666667 19.79166667 4.95833333 22.39583333 6 25 C5.67 25.33 5.34 25.66 5 26 C6.32 26.66 7.64 27.32 9 28 C7.02 28.99 7.02 28.99 5 30 C5 29.34 5 28.68 5 28 C3.02 28.99 1.04 29.98 -1 31 C-0.01 31.66 0.98 32.32 2 33 C3.20019571 37.80078283 3.57157325 39.83486991 1.375 44.3125 C-1 47 -1 47 -3.5625 48.25 C-6.91473714 50.65673436 -7.49903859 52.88196336 -8.4921875 56.8203125 C-10.27029148 67.95397897 -9.14394641 78.3535518 -6.33569336 89.19921875 C-4.91071535 94.73214605 -4.91071535 94.73214605 -6 98 C-11.9951346 82.4301116 -15.25131659 66.15566592 -9 50 C-6.71595159 46.42227647 -4.9543112 45.4568515 -1 44 C0.41441874 41.17116253 0.31900332 39.12623255 0 36 C-1.9600281 34.36323743 -1.9600281 34.36323743 -4 33 C-4 31.68 -4 30.36 -4 29 C-2.7934375 28.5359375 -2.7934375 28.5359375 -1.5625 28.0625 C0.89080405 27.23664655 0.89080405 27.23664655 2 26 C2.50135199 23.62778044 2.50135199 23.62778044 2 21 C-0.39859044 18.66369252 -0.39859044 18.66369252 -3 17 C-2.8125 15.125 -2.8125 15.125 -2 13 C-0.7625 12.5359375 -0.7625 12.5359375 0.5 12.0625 C1.325 11.711875 2.15 11.36125 3 11 C3.89386164 8.45224694 3.89386164 8.45224694 4 6 C3.34 5.566875 2.68 5.13375 2 4.6875 C1.34 4.130625 0.68 3.57375 0 3 C0 2.01 0 1.02 0 0 Z " fill="#EABE3F" transform="translate(196,45)"/>
<path d="M0 0 C3.12578143 1.6720747 5.39281175 3.7856235 7 7 C7.64289334 10.99570417 7.84981258 14.54509935 5.765625 18.11328125 C2.34882626 22.19821638 0.14481495 23.75719076 -5.3125 24.375 C-10.19705122 23.87826598 -11.61603544 22.46650028 -15 19 C-15 18.34 -15 17.68 -15 17 C-14.4328125 17.15984375 -13.865625 17.3196875 -13.28125 17.484375 C-8.6822867 18.5238667 -3.9441793 18.72906724 0.5 17.0625 C2.91552878 13.74114793 2.83159584 10.01643918 3 6 C2.38125 5.855625 1.7625 5.71125 1.125 5.5625 C-1 5 -1 5 -3 4 C-3 3.34 -3 2.68 -3 2 C-4.46109063 2.25554054 -5.91888096 2.53000372 -7.375 2.8125 C-8.59316406 3.03873047 -8.59316406 3.03873047 -9.8359375 3.26953125 C-12.35820641 3.87544942 -12.35820641 3.87544942 -14 7 C-14.45394552 9.27912938 -14.45394552 9.27912938 -14.625 11.6875 C-14.69976562 12.49574219 -14.77453125 13.30398437 -14.8515625 14.13671875 C-14.90054688 14.75160156 -14.94953125 15.36648437 -15 16 C-15.66 15.67 -16.32 15.34 -17 15 C-16.74610842 9.17318823 -16.38883987 5.25584472 -12 1 C-8.27533151 -0.86233425 -4.05504687 -0.57130829 0 0 Z " fill="#EEC660" transform="translate(63,134)"/>
<path d="M0 0 C5.35755096 1.92063148 8.45837216 4.91674432 11 10 C11.40399154 15.25189007 10.88990343 18.56881474 8 23 C4.27262954 26.77829082 1.05584251 28.80605259 -4.3125 29.3125 C-8.7654615 28.93513038 -10.60424213 27.86752887 -14 25 C-18 19.84210526 -18 19.84210526 -18 16 C-15 17 -15 17 -13.5 19.9375 C-12.7575 21.4534375 -12.7575 21.4534375 -12 23 C-7.7741215 25.81725233 -3.96375312 25.79958384 1 25 C3.82424288 22.80977082 5.41508603 21.16982793 7 18 C7.34708476 12.70695745 7.51351894 9.26641586 4 5 C1.02651216 2.68728723 -2.26004571 2.52347694 -5.9765625 2.61328125 C-9.52679049 3.29179973 -11.51131282 5.51131282 -14 8 C-14.78375 8.763125 -15.5675 9.52625 -16.375 10.3125 C-17.179375 11.1478125 -17.179375 11.1478125 -18 12 C-17.58424938 7.14957612 -15.58340022 5.15680495 -12 2 C-7.93848662 -0.70767559 -4.76466041 -0.52215457 0 0 Z " fill="#E6E7E7" transform="translate(342,60)"/>
<path d="M0 0 C1.05960937 0.00676758 1.05960937 0.00676758 2.140625 0.01367188 C3.88545275 0.02546125 5.630237 0.04339676 7.375 0.0625 C6.385 1.5475 6.385 1.5475 5.375 3.0625 C3.34769655 3.31993536 1.31935064 3.57386464 -0.71484375 3.76953125 C-2.73123784 3.9568348 -2.73123784 3.9568348 -4.625 5.25 C-6.1269219 7.97223344 -6.01348434 10.01937263 -5.625 13.0625 C-2.43737635 15.18758244 -0.35987777 15.5645163 3.375 16.0625 C-0.29229303 18.35455814 -4.32329949 19.29294824 -8.625 19.0625 C-11.48493478 17.29785939 -13.12282849 16.06684303 -14.625 13.0625 C-15 9.75 -15 9.75 -14.625 6.0625 C-9.98372389 0.44411313 -6.96285592 -0.08350288 0 0 Z " fill="#1F4082" transform="translate(313.625,205.9375)"/>
<path d="M0 0 C2 2 2 2 2.265625 4.27734375 C2.26046875 5.15519531 2.2553125 6.03304687 2.25 6.9375 C2.25515625 7.81277344 2.2603125 8.68804687 2.265625 9.58984375 C2 12 2 12 0 15 C-7.06292967 15.67265997 -7.06292967 15.67265997 -9.73046875 13.7578125 C-11.33458209 11.53673248 -11.40220479 10.22047926 -11.375 7.5 C-11.38273437 6.7265625 -11.39046875 5.953125 -11.3984375 5.15625 C-10.22412781 -1.19883774 -5.24442149 -0.41622393 0 0 Z " fill="#F5DDA4" transform="translate(60,29)"/>
<path d="M0 0 C0.79148437 -0.02578125 1.58296875 -0.0515625 2.3984375 -0.078125 C4.625 0.25 4.625 0.25 6.40234375 1.47265625 C7.98449781 3.77259267 7.93270414 5.17280469 7.8125 7.9375 C7.78542969 8.74574219 7.75835937 9.55398437 7.73046875 10.38671875 C7.69566406 11.00160156 7.66085937 11.61648437 7.625 12.25 C6.635 12.58 5.645 12.91 4.625 13.25 C4.625 13.91 4.625 14.57 4.625 15.25 C-1.83454977 15.61563489 -1.83454977 15.61563489 -4.08984375 14.08984375 C-5.87424715 11.53527232 -5.70640059 9.71008241 -5.625 6.625 C-5.60953125 5.64273438 -5.5940625 4.66046875 -5.578125 3.6484375 C-5.23577542 -0.39392095 -3.67522383 0.07136357 0 0 Z " fill="#F5DFA7" transform="translate(339.375,135.75)"/>
<path d="M0 0 C6.77595628 -0.76502732 6.77595628 -0.76502732 10.5 1.5625 C12.50478781 4.82028019 12.28862859 7.24782833 12 11 C10.68 11.33 9.36 11.66 8 12 C8 12.66 8 13.32 8 14 C6.72125 14.061875 5.4425 14.12375 4.125 14.1875 C3.40570313 14.22230469 2.68640625 14.25710937 1.9453125 14.29296875 C1.30335938 14.19628906 0.66140625 14.09960938 0 14 C-1.99825961 11.00261059 -2.27550398 10.36652492 -2.25 7 C-2.25515625 6.319375 -2.2603125 5.63875 -2.265625 4.9375 C-2 3 -2 3 0 0 Z " fill="#F5DDA4" transform="translate(336,65)"/>
<path d="M0 0 C0.86625 -0.00773438 1.7325 -0.01546875 2.625 -0.0234375 C5.44204351 0.44915862 6.33111887 1.08900849 8 3.375 C8.4375 6.375 8.4375 6.375 8 9.375 C6.22846223 11.58942221 4.88828869 12.24394101 2.09375 12.65625 C-1.18254968 12.80294999 -3.48813383 12.60533977 -6.5 11.25 C-8 9.375 -8 9.375 -8.4375 6.375 C-7.6586115 1.03405031 -5.15413088 -0.04601903 0 0 Z " fill="#F6F8FA" transform="translate(315,209.625)"/>
<path d="M0 0 C2.68885374 0.0775165 4.43380962 0.42172816 6.35009766 2.37890625 C7.74198405 4.2121975 9.03876153 6.08278772 10.3125 8 C10.9940918 8.98226562 10.9940918 8.98226562 11.68945312 9.984375 C15 14.80333647 15 14.80333647 15 16 C11.95613276 16.08226668 9.92824652 15.97608217 7 15 C4.26710707 14.77202438 1.54957796 14.58331813 -1.1875 14.4375 C-1.93708984 14.39431641 -2.68667969 14.35113281 -3.45898438 14.30664062 C-5.30578375 14.20077315 -7.15286834 14.0999024 -9 14 C-9 13.67 -9 13.34 -9 13 C-2.565 12.505 -2.565 12.505 4 12 C0.37 11.67 -3.26 11.34 -7 11 C-2.66666667 2.33333333 -2.66666667 2.33333333 0 1 C0 0.67 0 0.34 0 0 Z " fill="#2F4E8C" transform="translate(349,208)"/>
<path d="M0 0 C3 2 3 2 3.46875 4.27734375 C3.49996232 6.9342926 3.46390559 9.38131799 3 12 C0.8125 14.1875 0.8125 14.1875 -2 15 C-4.78328027 14.86746284 -6.42316214 14.33814633 -8.8125 12.9375 C-10.74485395 9.78471197 -10.53100784 6.58991215 -10 3 C-7.82738374 -1.0896306 -4.19992962 -0.37499372 0 0 Z " fill="#F6E0AC" transform="translate(59,65)"/>
<path d="M0 0 C4.04022792 1.80070083 6.41677143 4.19806072 9 7.75 C10.76515096 13.48674063 9.99203972 18.08678054 7.25 23.375 C4.8554814 26.16860504 3.41491466 27.63403414 0 29 C-3.01872632 29.22869139 -5.97976154 29.17766109 -9 29 C-9.33 28.01 -9.66 27.02 -10 26 C-9.33613281 25.97421875 -8.67226563 25.9484375 -7.98828125 25.921875 C-2.48233744 25.56820854 1.04186392 25.2134997 5 21 C6.75120224 17.49759552 6.54503846 13.82168145 6 10 C4.72462069 6.98886055 3.68320616 6.19037238 1 4 C-2.07977648 2.94698819 -4.76385446 2.65633853 -8 3 C-12.44617136 5.22308568 -15.60304269 8.40322167 -19 12 C-18.34143694 6.77660259 -16.36273873 4.66188906 -12.3828125 1.40234375 C-8.26799188 -1.01932937 -4.58864999 -1.06121873 0 0 Z " fill="#E3E5E6" transform="translate(343,24)"/>
<path d="M0 0 C6.78384798 -0.64608076 6.78384798 -0.64608076 10 1.0625 C11.54966419 4.06497436 11.2369106 6.6832516 11 10 C10 13 10 13 8 14 C6.125 14.16796875 6.125 14.16796875 4 14.1875 C2.948125 14.20876953 2.948125 14.20876953 1.875 14.23046875 C0 14 0 14 -2 12 C-2.265625 9.94140625 -2.265625 9.94140625 -2.25 7.5625 C-2.25515625 6.78003906 -2.2603125 5.99757813 -2.265625 5.19140625 C-2 3 -2 3 0 0 Z " fill="#F4DA9B" transform="translate(336,29)"/>
<path d="M0 0 C7.59 0 15.18 0 23 0 C23 0.99 23 1.98 23 3 C20.62492145 3.02719556 18.25016036 3.04693247 15.875 3.0625 C14.87726563 3.07506836 14.87726563 3.07506836 13.859375 3.08789062 C9.69619765 3.10829836 6.16851045 2.69475174 2 2 C2 7.28 2 12.56 2 18 C3.98 17.67 5.96 17.34 8 17 C8 16.67 8 16.34 8 16 C13.28 16 18.56 16 24 16 C24 17.32 24 18.64 24 20 C16.08 20 8.16 20 0 20 C0 13.4 0 6.8 0 0 Z " fill="#34528E" transform="translate(230,206)"/>
<path d="M0 0 C1 1 1 1 1.09765625 3.50390625 C1.08605469 4.51324219 1.07445312 5.52257812 1.0625 6.5625 C1.05347656 7.57441406 1.04445313 8.58632812 1.03515625 9.62890625 C1.02355469 10.41136719 1.01195312 11.19382812 1 12 C-1.40545638 13.20272819 -2.94996953 13.10071472 -5.625 13.0625 C-6.85089844 13.04896484 -6.85089844 13.04896484 -8.1015625 13.03515625 C-9.04128906 13.01775391 -9.04128906 13.01775391 -10 13 C-11.59633757 9.80732485 -11.36932376 6.47306385 -11 3 C-8.82273288 -1.35453424 -4.24834463 -0.27408675 0 0 Z " fill="#F5DEA4" transform="translate(60,101)"/>
<path d="M0 0 C0.33 0 0.66 0 1 0 C1 2.97 1 5.94 1 9 C0.34 9 -0.32 9 -1 9 C-1 8.01 -1 7.02 -1 6 C-19.81 6 -38.62 6 -58 6 C-58 5.34 -58 4.68 -58 4 C-39.19 4 -20.38 4 -1 4 C-0.67 2.68 -0.34 1.36 0 0 Z " fill="#FDFDFD" transform="translate(325,105)"/>
<path d="M0 0 C3.5 0.25 3.5 0.25 5.5 2.25 C6.05641422 9.26081917 6.05641422 9.26081917 4.375 12.25 C1.64368353 13.70670212 -0.46010077 13.57339354 -3.5 13.25 C-5.5 11.25 -5.5 11.25 -5.765625 9.15625 C-5.75789063 7.96515625 -5.75789063 7.96515625 -5.75 6.75 C-5.75515625 5.9559375 -5.7603125 5.161875 -5.765625 4.34375 C-5.27150997 0.44896095 -3.70978315 0.26498451 0 0 Z " fill="#F6E0AA" transform="translate(341.5,100.75)"/>
<path d="M0 0 C-2 2 -2 2 -5.0625 3 C-8.12150806 3.65752556 -8.12150806 3.65752556 -9 6 C-9.23333287 12.08516056 -9.23333287 12.08516056 -8 18 C-7.34 18 -6.68 18 -6 18 C-6 18.66 -6 19.32 -6 20 C-2.37 20.33 1.26 20.66 5 21 C3 24 3 24 1.08203125 24.50390625 C-4.63481778 24.65150132 -7.51599102 23.51625842 -11.6875 19.60546875 C-13.6998644 17.14391586 -14.01818467 14.86491388 -14.4375 11.75 C-13.8560227 6.76590888 -11.62718402 4.32648483 -8 1 C-5.29120665 -0.35439668 -2.99066732 -0.06501451 0 0 Z " fill="#EDC253" transform="translate(340,98)"/>
<path d="M0 0 C2.92402125 1.97201433 4.73531168 3.88421752 6.6875 6.8125 C6.6875 7.4725 6.6875 8.1325 6.6875 8.8125 C5.6975 8.8125 4.7075 8.8125 3.6875 8.8125 C2.6810725 7.14970673 1.68164593 5.48266516 0.6875 3.8125 C-2.2833879 1.50180941 -5.56411104 1.34162191 -9.27734375 1.41796875 C-12.92977597 2.12602183 -14.75033808 4.18784632 -17.3125 6.8125 C-18.90703633 10.00157265 -18.69811702 13.34194682 -18.3125 16.8125 C-16.58282287 20.55797604 -16.58282287 20.55797604 -13.3125 22.8125 C-13.3125 23.8025 -13.3125 24.7925 -13.3125 25.8125 C-17.58933498 24.28505894 -19.31287651 21.81174698 -21.3125 17.8125 C-22.13083202 12.77157476 -21.88502041 8.97874529 -19.625 4.375 C-13.96004467 -1.90238294 -7.86175205 -2.81836394 0 0 Z " fill="#F4F3F3" transform="translate(65.3125,61.1875)"/>
<path d="M0 0 C0.66 0 1.32 0 2 0 C2.33 0.99 2.66 1.98 3 3 C20.16 3.33 37.32 3.66 55 4 C55 4.66 55 5.32 55 6 C37.18 6 19.36 6 1 6 C0.67 4.02 0.34 2.04 0 0 Z " fill="#FEFEFE" transform="translate(70,105)"/>
<path d="M0 0 C0.66 0 1.32 0 2 0 C0.20024568 11.59841673 -5.31826318 23.45129937 -14.46484375 31.046875 C-22.75669212 36.75816392 -22.75669212 36.75816392 -28 38 C-26.4886526 33.76822727 -23.78176849 32.2245697 -20 30 C-19.071875 29.67 -18.14375 29.34 -17.1875 29 C-16.465625 28.67 -15.74375 28.34 -15 28 C-14.7834375 27.071875 -14.7834375 27.071875 -14.5625 26.125 C-14 24 -14 24 -11.125 22.125 C-5.71295729 18.44481095 -4.57145097 13.04404219 -3 7 C-2.34 7 -1.68 7 -1 7 C-0.67 4.69 -0.34 2.38 0 0 Z " fill="#E9BF47" transform="translate(257,128)"/>
<path d="M0 0 C0 0.66 0 1.32 0 2 C2.31 2.33 4.62 2.66 7 3 C9.21474076 8.04468729 8.85072153 10.85910687 7 16 C6.34 16 5.68 16 5 16 C5 16.66 5 17.32 5 18 C2.35559361 18.8814688 0.71939248 19.16174818 -2 19.1875 C-2.680625 19.20167969 -3.36125 19.21585938 -4.0625 19.23046875 C-6 19 -6 19 -9 17 C-9.1875 13.875 -9.1875 13.875 -9 11 C-9.66 11 -10.32 11 -11 11 C-10.91626518 8.15301606 -10.40889548 6.448839 -8.48046875 4.33203125 C-3.59278504 0 -3.59278504 0 0 0 Z M-6.9375 4 C-8.66160604 7.24537607 -8.62413468 10.46796513 -8 14 C-6.62283334 16.71107713 -6.62283334 16.71107713 -4 18 C1.05692899 17.85718492 1.05692899 17.85718492 5 15 C5.35685986 12.63197999 5.35685986 12.63197999 5.3125 10 C5.32925781 9.113125 5.34601562 8.22625 5.36328125 7.3125 C5.24339844 6.549375 5.12351562 5.78625 5 5 C1.13243707 2.42162471 -2.65389181 1.78910545 -6.9375 4 Z " fill="#F0CC71" transform="translate(57,62)"/>
<path d="M0 0 C2.31 0 4.62 0 7 0 C7 0.66 7 1.32 7 2 C8.423125 2.37125 8.423125 2.37125 9.875 2.75 C13 4 13 4 14.375 6.125 C14.684375 7.053125 14.684375 7.053125 15 8 C14.34 7.67 13.68 7.34 13 7 C10.1724011 6.24755499 10.1724011 6.24755499 7 7 C5.25661146 8.88830496 3.88225903 10.89434919 2.4453125 13.0234375 C-0.06885682 16.46173392 -3.06396518 17.68798839 -7 19 C-7 18.01 -7 17.02 -7 16 C-5.34928604 14.97388051 -3.68029994 13.97691857 -2 13 C1.26652152 9.73347848 1.74743531 6.54616439 2 2 C1.34 1.34 0.68 0.68 0 0 Z " fill="#F3D68E" transform="translate(221,35)"/>
<path d="M0 0 C0.66 0.33 1.32 0.66 2 1 C1.67 1.33 1.34 1.66 1 2 C0.44171262 6.94221614 0.19223621 10.78835432 3 15 C3.66 15.66 4.32 16.32 5 17 C5 17.66 5 18.32 5 19 C10.02705917 18.87952582 13.09872551 18.75412763 17.0625 15.4375 C17.701875 14.633125 18.34125 13.82875 19 13 C18.69461464 15.85026332 17.95551924 17.05165508 16.0625 19.25 C11.70935943 21.7375089 7.90581878 21.80687809 3 21 C-0.49996383 18.95835443 -2.80555258 16.90910064 -4 13 C-4.66666667 6 -4.66666667 6 -2 2 C-1.34 1.34 -0.68 0.68 0 0 Z " fill="#ECBE49" transform="translate(330,29)"/>
<path d="M0 0 C7.61406844 -0.76140684 7.61406844 -0.76140684 10.8984375 1.04296875 C13.69854202 3.37183617 15.75923969 5.28028349 16.2734375 8.953125 C16.46329043 13.24672199 16.4342668 16.09582964 13.625 19.5 C9.57702367 23.35521555 6.90915808 23.34396426 1.484375 23.28125 C-2.07012904 22.87885332 -3.72197392 21.71893435 -6 19 C-6.8125 16.25 -6.8125 16.25 -7 14 C-6.38125 14.804375 -5.7625 15.60875 -5.125 16.4375 C-2.70266762 19.35854787 -2.01543658 19.88192598 1.6875 20.3125 C6.12475889 19.89389067 8.32779474 18.52014086 12 16 C13.20776206 12.37671381 13.40040892 9.80388473 13 6 C10.23569209 2.71738436 7.81606031 1.79265269 3.6875 1.25 C2.470625 1.1675 1.25375 1.085 0 1 C0 0.67 0 0.34 0 0 Z " fill="#EBBD45" transform="translate(54,27)"/>
<path d="M0 0 C3.4375 0.1875 3.4375 0.1875 4.4375 1.1875 C4.5354057 2.68488124 4.56724864 4.18692892 4.5625 5.6875 C4.56507812 6.5021875 4.56765625 7.316875 4.5703125 8.15625 C4.4375 10.1875 4.4375 10.1875 3.4375 11.1875 C0.76691149 11.32865161 -1.88682238 11.22997107 -4.5625 11.1875 C-6.06912097 8.17425805 -5.74020373 5.50463623 -5.5625 2.1875 C-3.5625 0.1875 -3.5625 0.1875 0 0 Z " fill="#F7E3B4" transform="translate(55.5625,137.8125)"/>
<path d="M0 0 C5.91747691 7.14960909 5.21083856 16.76027748 5.3125 25.625 C5.33014404 26.50728271 5.34778809 27.38956543 5.3659668 28.29858398 C5.35940808 34.68617526 4.90511948 41.82651839 0.39575195 46.75244141 C-0.06484619 47.16413574 -0.52544434 47.57583008 -1 48 C-0.49396008 45.83125748 -0.00016187 44.00032373 1 42 C2.60049192 30.40137336 3.23051071 18.30678749 0 7 C-0.1546482 4.63479217 -0.09887293 2.37295024 0 0 Z " fill="#F9EAC6" transform="translate(251,79)"/>
<path d="M0 0 C1.8871875 0.1546875 1.8871875 0.1546875 3.8125 0.3125 C3.8125 0.6425 3.8125 0.9725 3.8125 1.3125 C1.8325 1.9725 -0.1475 2.6325 -2.1875 3.3125 C-2.21439216 4.79156892 -2.23384621 6.27077483 -2.25 7.75 C-2.26160156 8.57371094 -2.27320313 9.39742187 -2.28515625 10.24609375 C-2.42017348 12.30413938 -2.42017348 12.30413938 -1.1875 13.3125 C1.77067107 13.56255386 1.77067107 13.56255386 4.8125 13.3125 C7.3779594 10.7470406 7.35296087 8.83563332 7.8125 5.3125 C8.1425 5.3125 8.4725 5.3125 8.8125 5.3125 C8.8125 7.9525 8.8125 10.5925 8.8125 13.3125 C7.8225 13.6425 6.8325 13.9725 5.8125 14.3125 C5.4825 15.3025 5.1525 16.2925 4.8125 17.3125 C0.88693924 17.62038712 -1.5832736 17.62104114 -5.125 15.8125 C-7.51185796 12.91933884 -7.80976473 11.01029082 -7.53125 7.28515625 C-6.63685874 2.15257005 -5.2505997 0.02787929 0 0 Z " fill="#F3D791" transform="translate(339.1875,99.6875)"/>
<path d="M0 0 C7.30402245 -0.35921422 7.30402245 -0.35921422 9.9375 1 C11.63320255 4.19191067 12.13912724 7.43138621 12 11 C10.86225672 13.43063337 9.88186104 15.11813896 8 17 C3.98874478 17.42309386 0.24266895 17.45463498 -3.5625 16.0625 C-5.91890818 12.68156653 -5.30108747 8.98940894 -5 5 C-4.67 5 -4.34 5 -4 5 C-3.67 7.97 -3.34 10.94 -3 14 C2.445 13.505 2.445 13.505 8 13 C7.67 9.37 7.34 5.74 7 2 C4.69 1.67 2.38 1.34 0 1 C0 0.67 0 0.34 0 0 Z " fill="#F2D283" transform="translate(53,100)"/>
<path d="M0 0 C2.51261772 2.11288308 4.46115217 3.92230433 5.9375 6.875 C6.03677334 10.25029373 5.21681257 12.87105339 4 16 C0.78481576 18.73886065 -2.94614518 18.22111935 -7 18 C-10 17 -10 17 -11.1875 15.4375 C-12.35907792 11.92276624 -12.49055816 8.66786566 -12 5 C-9.32510741 -0.08229592 -5.46732237 -2.00023989 0 0 Z M-8 2 C-9.99825961 4.99738941 -10.27550398 5.63347508 -10.25 9 C-10.25515625 9.680625 -10.2603125 10.36125 -10.265625 11.0625 C-10.09917603 13.32416007 -10.09917603 13.32416007 -8 16 C-6.02252878 16.36297936 -6.02252878 16.36297936 -3.875 16.1875 C-2.59625 16.125625 -1.3175 16.06375 0 16 C0 15.34 0 14.68 0 14 C1.32 13.67 2.64 13.34 4 13 C4.3967082 8.03405426 4.3967082 8.03405426 2.5 3.5625 C-1.23584354 1.22759779 -3.63400029 1.50706455 -8 2 Z " fill="#F1CE79" transform="translate(344,63)"/>
<path d="M0 0 C0.66 0.33 1.32 0.66 2 1 C1.96519531 2.15628906 1.96519531 2.15628906 1.9296875 3.3359375 C1.91164063 4.33882812 1.89359375 5.34171875 1.875 6.375 C1.85179687 7.37273437 1.82859375 8.37046875 1.8046875 9.3984375 C1.72783152 12.16262173 1.72783152 12.16262173 4 14 C6.32275177 14.40047444 8.65739357 14.7397104 11 15 C11 14.34 11 13.68 11 13 C11.66 12.67 12.32 12.34 13 12 C13.46523063 10.10466658 13.46523063 10.10466658 13.625 7.9375 C13.74875 6.638125 13.8725 5.33875 14 4 C14.33 4 14.66 4 15 4 C15.46788961 8.77247406 15.68514232 11.95087582 13 16.0625 C8.87741392 18.72500351 6.84692237 18.62540934 2 18 C-0.08032835 16.44816153 -0.87106708 15.45429386 -1.58203125 12.94921875 C-2.07647685 8.09694752 -1.9995954 4.5873071 0 0 Z " fill="#F1CF7A" transform="translate(333,136)"/>
<path d="M0 0 C0.33 0 0.66 0 1 0 C1.66964286 7.76785714 1.66964286 7.76785714 -1.25 11.375 C-4.83857082 14.80045397 -7.39544615 16.28629182 -12.375 16.3125 C-17.59115976 16.18381185 -21.20118427 14.79881573 -24.9375 11.0625 C-26 9 -26 9 -25.6875 6.75 C-25.3471875 5.88375 -25.3471875 5.88375 -25 5 C-24.4225 5.763125 -23.845 6.52625 -23.25 7.3125 C-19.85165372 11.54100467 -19.85165372 11.54100467 -14.921875 13.35546875 C-10.74812302 13.61114561 -8.62269689 13.43318044 -5.125 11 C-2.5765363 7.40216889 -1.34903844 4.18911938 0 0 Z " fill="#F4F4F3" transform="translate(351,108)"/>
<path d="M0 0 C1.65 0 3.3 0 5 0 C5 5.28 5 10.56 5 16 C3.02 16.33 1.04 16.66 -1 17 C-1.22126178 14.54220024 -1.42750395 12.08472352 -1.625 9.625 C-1.68945312 8.92632812 -1.75390625 8.22765625 -1.8203125 7.5078125 C-1.96119739 5.67630889 -1.98761659 3.83687252 -2 2 C-1.34 1.34 -0.68 0.68 0 0 Z " fill="#375590" transform="translate(290,208)"/>
<path d="M0 0 C0.66 0.33 1.32 0.66 2 1 C1.34 1.66 0.68 2.32 0 3 C-0.81995228 7.76716444 -0.47274997 11.20223442 2 15.375 C2.99 16.674375 2.99 16.674375 4 18 C4 18.99 4 19.98 4 21 C0.90677596 20.6655974 -0.58887768 20.4404882 -2.75 18.125 C-5.14892676 14.04682451 -5.4744685 10.66560693 -5 6 C-3.54350922 3.6675777 -1.93900636 1.98748152 0 0 Z " fill="#ECBF4C" transform="translate(331,64)"/>
<path d="M0 0 C5.21837619 0.52183762 8.14977269 3.18328943 11.5 7.0625 C12.03625 7.805 12.5725 8.5475 13.125 9.3125 C12.135 9.6425 11.145 9.9725 10.125 10.3125 C8.125 8.3125 6.125 6.3125 4.125 4.3125 C-0.68141102 3.88548414 -5.69651075 3.65346138 -9.875 6.3125 C-11.23578035 8.83622901 -11.23578035 8.83622901 -11.875 11.3125 C-12.865 11.3125 -13.855 11.3125 -14.875 11.3125 C-13.48178155 6.43623543 -10.93641704 4.23672027 -6.875 1.3125 C-4.52138651 0.35634452 -2.54005647 0.27609309 0 0 Z " fill="#E4E5E6" transform="translate(58.875,94.6875)"/>
<path d="M0 0 C3.96 0 7.92 0 12 0 C12 6.27 12 12.54 12 19 C9.69 19 7.38 19 5 19 C5 14.05 5 9.1 5 4 C5.33 4 5.66 4 6 4 C6 8.62 6 13.24 6 18 C7.32 18 8.64 18 10 18 C10 12.72 10 7.44 10 2 C7.69 2.66 5.38 3.32 3 4 C3 3.34 3 2.68 3 2 C2.01 1.67 1.02 1.34 0 1 C0 0.67 0 0.34 0 0 Z " fill="#17397E" transform="translate(285,206)"/>
<path d="M0 0 C0.33 0 0.66 0 1 0 C1.61395823 5.03445749 0.43660158 7.76366795 -2.5546875 11.65234375 C-4 13 -4 13 -6.8125 13.4375 C-7.534375 13.293125 -8.25625 13.14875 -9 13 C-9 13.66 -9 14.32 -9 15 C-13.28849188 14.5235009 -15.3664682 12.27412061 -18 9 C-18.8125 5.1875 -18.8125 5.1875 -19 2 C-18.34 2 -17.68 2 -17 2 C-16.87625 2.969375 -16.7525 3.93875 -16.625 4.9375 C-16.315625 6.4534375 -16.315625 6.4534375 -16 8 C-13.35541621 9.32229189 -11.32238699 9.09677194 -8.375 9.0625 C-7.37210938 9.05347656 -6.36921875 9.04445313 -5.3359375 9.03515625 C-4.56507812 9.02355469 -3.79421875 9.01195313 -3 9 C-3 8.34 -3 7.68 -3 7 C-2.34 7 -1.68 7 -1 7 C-0.67 4.69 -0.34 2.38 0 0 Z " fill="#EFC968" transform="translate(65,71)"/>
<path d="M0 0 C4.29 0 8.58 0 13 0 C13.33 1.32 13.66 2.64 14 4 C11 3.5 11 3.5 8 3 C5.03 2.505 5.03 2.505 2 2 C2 7.28 2 12.56 2 18 C3.65 18 5.3 18 7 18 C7 18.66 7 19.32 7 20 C4.69 20 2.38 20 0 20 C0 13.4 0 6.8 0 0 Z " fill="#314F8C" transform="translate(256,206)"/>
<path d="M0 0 C-0.125 1.8125 -0.125 1.8125 -1 4 C-3.6875 5.5 -3.6875 5.5 -7 7 C-11.01995875 9.48092472 -11.01995875 9.48092472 -14.5 12.625 C-18.56464556 16.35092509 -23.78416064 16.20863357 -29 16 C-28.67 15.34 -28.34 14.68 -28 14 C-26.2984375 13.6596875 -26.2984375 13.6596875 -24.5625 13.3125 C-19.66004863 12.23678225 -16.30779654 9.59943479 -12.39453125 6.55859375 C-9.86713921 4.91352128 -7.96656212 4.38465193 -5 4 C-4.67 3.01 -4.34 2.02 -4 1 C-2 0 -2 0 0 0 Z " fill="#EBC45D" transform="translate(243,153)"/>
<path d="M0 0 C-1 1 -1 1 -4.5625 1.0625 C-5.696875 1.041875 -6.83125 1.02125 -8 1 C-8.94738023 3.84214068 -9.13460559 5.67608391 -9.125 8.625 C-9.12757813 9.42164063 -9.13015625 10.21828125 -9.1328125 11.0390625 C-9.21570074 13.00353536 -9.21570074 13.00353536 -8 14 C-6.31391034 14.07205511 -4.62499341 14.08386068 -2.9375 14.0625 C-2.01839844 14.05347656 -1.09929687 14.04445313 -0.15234375 14.03515625 C0.55792969 14.02355469 1.26820313 14.01195312 2 14 C2.33 11.03 2.66 8.06 3 5 C3.33 5 3.66 5 4 5 C4.125 12.75 4.125 12.75 3 15 C2.34 15 1.68 15 1 15 C1 15.66 1 16.32 1 17 C-1.80915474 18.40457737 -3.88810534 18.24895157 -7 18 C-10.1359157 16.22015595 -10.84102736 15.47691793 -12 12 C-12.27363001 8.30599493 -12.22640078 5.61261389 -10.9375 2.125 C-9 0 -9 0 -5.4375 -0.875 C-2 -1 -2 -1 0 0 Z " fill="#F2D181" transform="translate(344,28)"/>
<path d="M0 0 C2.875 -0.1875 2.875 -0.1875 6 0 C8.29404844 3.44107266 8.26293056 4.96839809 8 9 C7.67 9.33 7.34 9.66 7 10 C4.66055264 9.71269945 2.3260857 9.38063221 0 9 C0 6.03 0 3.06 0 0 Z " fill="#F8E9C4" transform="translate(338,66)"/>
<path d="M0 0 C2.74086056 -0.22223194 4.43963721 -0.34781139 6.8125 1.125 C8.50813053 3.80231137 8.2694875 5.90089373 8 9 C7 10 7 10 4 10.125 C1 10 1 10 0 9 C-0.07179964 7.48071962 -0.08392007 5.95832518 -0.0625 4.4375 C-0.05347656 3.61121094 -0.04445313 2.78492188 -0.03515625 1.93359375 C-0.02355469 1.29550781 -0.01195312 0.65742188 0 0 Z " fill="#F8E9C3" transform="translate(338,137)"/>
<path d="M0 0 C0.33 0 0.66 0 1 0 C1.0294191 3.47914843 1.04693792 6.95826417 1.0625 10.4375 C1.07087891 11.41138672 1.07925781 12.38527344 1.08789062 13.38867188 C1.13917151 28.72165698 1.13917151 28.72165698 -1 33 C-1.66 33 -2.32 33 -3 33 C-3.12375 33.556875 -3.2475 34.11375 -3.375 34.6875 C-4.06543354 37.2421041 -4.89481684 39.59460135 -6 42 C-6.99 42.495 -6.99 42.495 -8 43 C-7.57312017 41.10174715 -7.13300518 39.20646817 -6.6875 37.3125 C-6.44386719 36.25675781 -6.20023438 35.20101562 -5.94921875 34.11328125 C-5.00230574 31.00756246 -3.66535428 28.76368446 -2 26 C-1.17491301 22.62983699 -0.83222129 19.37886708 -0.68359375 15.91796875 C-0.64169922 14.98662109 -0.59980469 14.05527344 -0.55664062 13.09570312 C-0.51732422 12.13599609 -0.47800781 11.17628906 -0.4375 10.1875 C-0.39431641 9.20845703 -0.35113281 8.22941406 -0.30664062 7.22070312 C-0.2009774 4.81392973 -0.09887673 2.40706017 0 0 Z " fill="#F5DEA5" transform="translate(256,94)"/>
<path d="M0 0 C2 3 2 3 2.0625 6.3125 C0.66701284 11.15566131 -1.84538724 13.29678035 -6 16 C-9.50147041 17.1671568 -12.32670036 17.13357453 -16 17 C-16.66 16.67 -17.32 16.34 -18 16 C-17.67 15.01 -17.34 14.02 -17 13 C-16.00419922 13.08701172 -16.00419922 13.08701172 -14.98828125 13.17578125 C-9.15843573 13.48465005 -9.15843573 13.48465005 -4 11 C-1.52454819 7.28682229 -0.81481745 4.37038448 0 0 Z " fill="#F6F6F6" transform="translate(70,72)"/>
<path d="M0 0 C0.33 0 0.66 0 1 0 C1.02578125 1.01835938 1.0515625 2.03671875 1.078125 3.0859375 C1.40629919 12.07533642 2.49483142 20.46884167 4.71582031 29.19677734 C6.09432777 34.71701668 6.09432777 34.71701668 5 38 C0.23591216 25.6272476 -1.6572612 15.22164966 -1 2 C-0.67 1.34 -0.34 0.68 0 0 Z " fill="#E1BF59" transform="translate(185,105)"/>
<path d="M0 0 C2.89094238 0.30974383 4.04691751 1.04170446 6.25 3 C8.65199742 7.11770986 9.02257216 10.34690034 8 15 C6.51430823 18.06669207 4.87763672 20.15133641 2 22 C-1.09397587 22.55339406 -3.89693497 22.4344291 -7 22 C-7 21.67 -7 21.34 -7 21 C-4.69 21 -2.38 21 0 21 C0 20.01 0 19.02 0 18 C0.99 18 1.98 18 3 18 C4.58324433 13.84398363 5.64808956 10.44404269 5 6 C3.51512405 3.73388269 1.88307507 1.97722882 0 0 Z " fill="#EBBB40" transform="translate(62,135)"/>
<path d="M0 0 C0.99 0.66 1.98 1.32 3 2 C3.38116316 6.11656208 3.63739192 9.6745928 1 13 C-3.36018361 16.01858865 -6.55448238 17.96809202 -12 17 C-14.375 15 -14.375 15 -16 13 C-15.01 13.33 -14.02 13.66 -13 14 C-7.74225006 14.58538417 -7.74225006 14.58538417 -3.0625 12.625 C-1.22012138 9.80724447 -0.77024997 7.70249971 -0.4375 4.375 C-0.35371094 3.55773438 -0.26992187 2.74046875 -0.18359375 1.8984375 C-0.12300781 1.27195313 -0.06242187 0.64546875 0 0 Z " fill="#EEC761" transform="translate(65,31)"/>
<path d="M0 0 C4.62 0 9.24 0 14 0 C14 1.98 14 3.96 14 6 C13 7 13 7 11.23413086 7.11352539 C10.48526611 7.10828857 9.73640137 7.10305176 8.96484375 7.09765625 C8.15595703 7.09443359 7.34707031 7.09121094 6.51367188 7.08789062 C5.66353516 7.07951172 4.81339844 7.07113281 3.9375 7.0625 C3.08349609 7.05798828 2.22949219 7.05347656 1.34960938 7.04882812 C-0.76695663 7.03700373 -2.88348685 7.01906769 -5 7 C-5 6.34 -5 5.68 -5 5 C0.61 5 6.22 5 12 5 C12 3.68 12 2.36 12 1 C8.04 1 4.08 1 0 1 C0 0.67 0 0.34 0 0 Z " fill="#2F4E8B" transform="translate(61,221)"/>
<path d="M0 0 C0.99 0.33 1.98 0.66 3 1 C0.4855191 5.1908015 -1.37515573 8.19027833 -6 10 C-9.38001473 10.3900017 -12.63964927 10.58094199 -16 10 C-17.8046875 8.4765625 -17.8046875 8.4765625 -19 7 C-16.52004564 7 -14.03877338 7.05243054 -11.5625 7.1875 C-7.66475166 6.98235535 -6.04744937 6.3702384 -3 4 C-1.21655822 1.93045153 -1.21655822 1.93045153 0 0 Z " fill="#E8E9EA" transform="translate(69,150)"/>
<path d="M0 0 C1.4540625 0.0309375 1.4540625 0.0309375 2.9375 0.0625 C2.9375 2.7025 2.9375 5.3425 2.9375 8.0625 C-1.8125 9.1875 -1.8125 9.1875 -4.0625 8.0625 C-4.10491723 5.72955225 -4.10342937 3.39547433 -4.0625 1.0625 C-3.0625 0.0625 -3.0625 0.0625 0 0 Z " fill="#F9EBC9" transform="translate(55.0625,66.9375)"/>
<path d="M0 0 C3.76854223 1.25618074 4.07958456 2.66014706 6 6 C6.66 6.33 7.32 6.66 8 7 C8 8.65 8 10.3 8 12 C8.66 12.33 9.32 12.66 10 13 C7.69 12.67 5.38 12.34 3 12 C1.68 8.37 0.36 4.74 -1 1 C-0.67 0.67 -0.34 0.34 0 0 Z " fill="#F8E8C1" transform="translate(197,155)"/>
<path d="M0 0 C6.93 0 13.86 0 21 0 C21 0.99 21 1.98 21 3 C18.62492145 3.02719556 16.25016036 3.04693247 13.875 3.0625 C12.87726563 3.07506836 12.87726563 3.07506836 11.859375 3.08789062 C7.79318646 3.10782292 3.9879908 2.78890161 0 2 C0 1.34 0 0.68 0 0 Z " fill="#15387D" transform="translate(232,206)"/>
<path d="M0 0 C0.7734375 0.00644531 1.546875 0.01289062 2.34375 0.01953125 C4.5 0.1875 4.5 0.1875 7.5 1.1875 C7.17 2.1775 6.84 3.1675 6.5 4.1875 C5.84 3.8575 5.18 3.5275 4.5 3.1875 C-0.56178286 2.68132171 -2.49840273 2.4940865 -6.75 5.4375 C-7.6575 6.345 -8.565 7.2525 -9.5 8.1875 C-10.28375 8.950625 -11.0675 9.71375 -11.875 10.5 C-12.679375 11.3353125 -12.679375 11.3353125 -13.5 12.1875 C-13.08424938 7.33707612 -11.08340022 5.34430495 -7.5 2.1875 C-4.35388747 0.09009164 -3.58811922 -0.06578219 0 0 Z " fill="#F0F0F0" transform="translate(337.5,59.8125)"/>
<path d="M0 0 C0.99 0.33 1.98 0.66 3 1 C0.48855405 5.18574325 -1.39486893 8.15794757 -6 10 C-9.01872632 10.22869139 -11.97976154 10.17766109 -15 10 C-15.33 9.01 -15.66 8.02 -16 7 C-15.33613281 6.97421875 -14.67226563 6.9484375 -13.98828125 6.921875 C-8.48233744 6.56820854 -4.95813608 6.2134997 -1 2 C-0.67 1.34 -0.34 0.68 0 0 Z " fill="#E5E2DB" transform="translate(69,43)"/>
<path d="M0 0 C2 2 2 2 2.08203125 4.53125 C1.99308594 5.5109375 1.90414062 6.490625 1.8125 7.5 C1.73644531 8.4796875 1.66039062 9.459375 1.58203125 10.46875 C1 13 1 13 -2 15 C-5.97367642 15.31537114 -8.78418107 15.4559321 -12.5 14.0625 C-14.94509198 10.70049852 -14.30321243 7.01756473 -14 3 C-13.67 3 -13.34 3 -13 3 C-12.67 5.97 -12.34 8.94 -12 12 C-8.7 12.33 -5.4 12.66 -2 13 C-1.34 8.71 -0.68 4.42 0 0 Z " fill="#F1D07D" transform="translate(62,31)"/>
<path d="M0 0 C3.2870282 0.27391902 4.78993231 0.81831983 7.3125 3 C9.52825715 6.93912383 9.92310464 10.55911821 9 15 C7.47265625 16.7734375 7.47265625 16.7734375 6 18 C5.66388432 15.89627599 5.33120054 13.79200343 5 11.6875 C4.7215625 9.92986328 4.7215625 9.92986328 4.4375 8.13671875 C4 5 4 5 4 2 C2.68 1.34 1.36 0.68 0 0 Z " fill="#ECBE48" transform="translate(61,99)"/>
<path d="M0 0 C4.85083893 3.95253543 8.50512239 10.1998287 9.31640625 16.4296875 C9.3125 18.625 9.3125 18.625 9 22 C3.89296715 15.65622131 1.74275259 7.84238665 0 0 Z " fill="#F6E0AC" transform="translate(243,57)"/>
<path d="M0 0 C2.375 -0.125 2.375 -0.125 5 0 C7 2 7 2 7.125 5.125 C7.08375 6.07375 7.0425 7.0225 7 8 C5.00045254 8.04254356 2.99958364 8.04080783 1 8 C0 7 0 7 -0.0625 3.4375 C-0.041875 2.303125 -0.02125 1.16875 0 0 Z " fill="#F9EDCF" transform="translate(339,31)"/>
<path d="M0 0 C0.99 0.33 1.98 0.66 3 1 C3.28529291 4.37913601 3.43346785 7.62978743 3 11 C0.8125 13.1875 0.8125 13.1875 -2 14 C-4.72379855 13.74662339 -6.5645952 13.2177024 -9 12 C-9 11.34 -9 10.68 -9 10 C-7.700625 10.020625 -6.40125 10.04125 -5.0625 10.0625 C-3.70834367 10.08399454 -2.35243917 10.07148199 -1 10 C0.23267348 8.99163938 0.23267348 8.99163938 0.09765625 6.93359375 C0.08605469 6.10988281 0.07445312 5.28617187 0.0625 4.4375 C0.05347656 3.61121094 0.04445313 2.78492187 0.03515625 1.93359375 C0.02355469 1.29550781 0.01195312 0.65742187 0 0 Z " fill="#F4D998" transform="translate(59,66)"/>
<path d="M0 0 C0.33 0 0.66 0 1 0 C1.02696365 1.79158489 1.04637917 3.58328473 1.0625 5.375 C1.07410156 6.37273437 1.08570312 7.37046875 1.09765625 8.3984375 C1 11 1 11 0 13 C-2.64440639 13.8814688 -4.28060752 14.16174818 -7 14.1875 C-7.680625 14.20167969 -8.36125 14.21585938 -9.0625 14.23046875 C-11 14 -11 14 -14 12 C-14.1875 8.875 -14.1875 8.875 -14 6 C-14.66 6 -15.32 6 -16 6 C-15.67 5.01 -15.34 4.02 -15 3 C-14.34 3 -13.68 3 -13 3 C-12.67 5.64 -12.34 8.28 -12 11 C-7.38959815 11.96780455 -7.38959815 11.96780455 -2.8125 11.34375 C-0.76388029 10.12019314 -0.76388029 10.12019314 -0.390625 7.6171875 C-0.32101563 6.25980469 -0.32101563 6.25980469 -0.25 4.875 C-0.19328125 3.96492188 -0.1365625 3.05484375 -0.078125 2.1171875 C-0.05234375 1.41851562 -0.0265625 0.71984375 0 0 Z " fill="#F2D17F" transform="translate(62,67)"/>
<path d="M0 0 C2.80783492 2.40565167 2.98294331 2.85136313 3.4375 6.8125 C3.27863154 11.12577874 1.77488572 13.67013713 -1 17 C-4.6441774 19.4294516 -6.71241272 19.16179575 -11 19 C-11 18.34 -11 17.68 -11 17 C-10.37351563 16.89042969 -9.74703125 16.78085938 -9.1015625 16.66796875 C-8.28429688 16.50941406 -7.46703125 16.35085937 -6.625 16.1875 C-5.81289063 16.03667969 -5.00078125 15.88585937 -4.1640625 15.73046875 C-1.64179359 15.12455058 -1.64179359 15.12455058 0 12 C0.24219315 9.02550392 0.24219315 9.02550392 0.125 5.8125 C0.10695313 4.72582031 0.08890625 3.63914062 0.0703125 2.51953125 C0.04710938 1.68808594 0.02390625 0.85664062 0 0 Z " fill="#EBBB3F" transform="translate(67,67)"/>
<path d="M0 0 C0.33 0.66 0.66 1.32 1 2 C0.40832031 2.08636719 -0.18335938 2.17273438 -0.79296875 2.26171875 C-6.42324551 3.26286095 -9.18166009 4.52708754 -13 9 C-14.31175986 10.02813611 -15.6369893 11.04084432 -17 12 C-16.35264702 6.720882 -14.24437605 4.69704202 -10.27734375 1.3828125 C-6.66938632 -0.8079541 -4.12244028 -0.51530504 0 0 Z " fill="#E7EAED" transform="translate(341,24)"/>
<path d="M0 0 C0.33 0.66 0.66 1.32 1 2 C0.40832031 2.08636719 -0.18335938 2.17273438 -0.79296875 2.26171875 C-6.39004362 3.25695719 -9.25486713 4.48381036 -13 9 C-14 10 -15 11 -16 12 C-16.33 11.01 -16.66 10.02 -17 9 C-15.92578125 7.24609375 -15.92578125 7.24609375 -14.3125 5.4375 C-13.79300781 4.83808594 -13.27351563 4.23867187 -12.73828125 3.62109375 C-8.71731083 -0.12880001 -5.4041617 -0.20785237 0 0 Z " fill="#EAECEF" transform="translate(341,131)"/>
<path d="M0 0 C4.23910579 1.51396635 5.93638856 4.09387835 8 8 C8.45280074 12.45254066 8.50304378 14.24543433 6 18 C5.72736328 16.77023438 5.72736328 16.77023438 5.44921875 15.515625 C5.07216797 13.89914063 5.07216797 13.89914063 4.6875 12.25 C4.44386719 11.18265625 4.20023437 10.1153125 3.94921875 9.015625 C3.01840693 6.05847797 1.9159065 4.38280808 0 2 C0 1.34 0 0.68 0 0 Z " fill="#E0E2E6" transform="translate(345,62)"/>
<path d="M0 0 C0.66 0 1.32 0 2 0 C6 5.41176471 6 5.41176471 6 8 C2.7 8 -0.6 8 -4 8 C-2.87548273 5.0280615 -1.77706209 2.66559313 0 0 Z " fill="#EDF0F5" transform="translate(347,210)"/>
<path d="M0 0 C2.29782929 2.93171323 2.98191371 5.71329274 3.8125 9.3125 C3.1525 9.3125 2.4925 9.3125 1.8125 9.3125 C1.4825 10.3025 1.1525 11.2925 0.8125 12.3125 C0.72613281 11.70921875 0.63976562 11.1059375 0.55078125 10.484375 C-0.14596596 6.52122571 -0.66634941 3.92561834 -3.3125 0.8125 C-7.05212459 -1.13860848 -9.98969475 -1.40290303 -14.1875 -1.6875 C-14.1875 -2.0175 -14.1875 -2.3475 -14.1875 -2.6875 C-8.14406648 -3.87248697 -4.89980679 -3.77985095 0 0 Z " fill="#F5F0E4" transform="translate(69.1875,135.6875)"/>
<path d="M0 0 C0.66 0.33 1.32 0.66 2 1 C1.01 2.485 1.01 2.485 0 4 C-0.45394552 6.27912938 -0.45394552 6.27912938 -0.625 8.6875 C-0.74875 10.110625 -0.8725 11.53375 -1 13 C2.63 13.66 6.26 14.32 10 15 C9.67 15.66 9.34 16.32 9 17 C5.07443924 17.30788712 2.6042264 17.30854114 -0.9375 15.5 C-3.32501582 12.60604143 -3.59768152 10.69561287 -3.375 6.97265625 C-2.85051821 4.21366352 -1.67145093 2.22860125 0 0 Z " fill="#F2D17F" transform="translate(335,100)"/>
<path d="M0 0 C0.9075 0.12375 1.815 0.2475 2.75 0.375 C3.41 1.695 4.07 3.015 4.75 4.375 C2.77 3.715 0.79 3.055 -1.25 2.375 C-1.45625 3.2825 -1.6625 4.19 -1.875 5.125 C-3.5704079 9.13232776 -5.52549784 10.26984661 -9.25 12.375 C-5.90909091 0.68181818 -5.90909091 0.68181818 0 0 Z " fill="#F5DEA5" transform="translate(231.25,40.625)"/>
<path d="M0 0 C1.23556641 0.01740234 1.23556641 0.01740234 2.49609375 0.03515625 C3.32238281 0.04417969 4.14867187 0.05320313 5 0.0625 C5.63808594 0.07410156 6.27617187 0.08570313 6.93359375 0.09765625 C6.93359375 0.42765625 6.93359375 0.75765625 6.93359375 1.09765625 C4.62359375 1.75765625 2.31359375 2.41765625 -0.06640625 3.09765625 C-1.10855316 7.71273399 -1.10855316 7.71273399 -0.06640625 12.09765625 C2.25515972 12.50494853 4.59047245 12.84204302 6.93359375 13.09765625 C6.93359375 13.75765625 6.93359375 14.41765625 6.93359375 15.09765625 C0.47404398 15.46329114 0.47404398 15.46329114 -1.78125 13.9375 C-3.5656534 11.38292857 -3.39780684 9.55773866 -3.31640625 6.47265625 C-3.3009375 5.49039063 -3.28546875 4.508125 -3.26953125 3.49609375 C-2.98539384 0.14108667 -2.98539384 0.14108667 0 0 Z " fill="#F3D791" transform="translate(337.06640625,135.90234375)"/>
<path d="M0 0 C2.91873822 1.94582548 3.5273915 2.5448669 5.0078125 5.484375 C5.52794922 6.51691406 5.52794922 6.51691406 6.05859375 7.5703125 C6.58646484 8.64925781 6.58646484 8.64925781 7.125 9.75 C7.48464844 10.45382813 7.84429687 11.15765625 8.21484375 11.8828125 C10.22014265 15.92345224 11.52819082 19.45347518 12 24 C7.32416076 17.96884503 0 7.8653974 0 0 Z " fill="#F1CD74" transform="translate(240,47)"/>
<path d="M0 0 C3.375 -0.125 3.375 -0.125 7 0 C9 2 9 2 9.125 5.625 C9.08375 6.73875 9.0425 7.8525 9 9 C8.67 9 8.34 9 8 9 C7.34 6.69 6.68 4.38 6 2 C4.35 1.67 2.7 1.34 1 1 C1.33 3.31 1.66 5.62 2 8 C3.65 8.33 5.3 8.66 7 9 C7 9.66 7 10.32 7 11 C4.69 11 2.38 11 0 11 C-0.19491452 9.54263913 -0.38069358 8.08405407 -0.5625 6.625 C-0.66691406 5.81289063 -0.77132813 5.00078125 -0.87890625 4.1640625 C-1 2 -1 2 0 0 Z " fill="#F6E3B3" transform="translate(338,30)"/>
<path d="M0 0 C1.2065625 0.0309375 1.2065625 0.0309375 2.4375 0.0625 C2.4375 2.7025 2.4375 5.3425 2.4375 8.0625 C0.77138095 8.105221 -0.89632885 8.10313832 -2.5625 8.0625 C-3.5625 7.0625 -3.5625 7.0625 -3.6875 4.0625 C-3.52180824 0.08589776 -3.52180824 0.08589776 0 0 Z " fill="#FBF2DD" transform="translate(54.5625,30.9375)"/>
<path d="M0 0 C1.2065625 0.0309375 1.2065625 0.0309375 2.4375 0.0625 C2.4375 2.3725 2.4375 4.6825 2.4375 7.0625 C0.78135343 7.44468767 -0.88707024 7.77645102 -2.5625 8.0625 C-3.5625 7.0625 -3.5625 7.0625 -3.6875 4.0625 C-3.52180824 0.08589776 -3.52180824 0.08589776 0 0 Z " fill="#FBF3DD" transform="translate(54.5625,137.9375)"/>
<path d="M0 0 C1.70933275 3.41866551 0.8991135 7.29769455 0.7421875 11.0546875 C1.02991647 14.34177302 1.79526342 15.61057344 4 18 C1.3354186 16.98929671 0.04804128 16.0600516 -1.75 13.8125 C-3.32295259 10.27335666 -3.41870367 7.83811699 -3 4 C-1.5 1.5625 -1.5 1.5625 0 0 Z " fill="#EBBC41" transform="translate(329,102)"/>
<path d="M0 0 C0.33 0 0.66 0 1 0 C1.08636719 0.59167969 1.17273437 1.18335938 1.26171875 1.79296875 C2.27608993 7.49764334 3.49437236 10.3243564 8 14 C7.67 14.99 7.34 15.98 7 17 C5.84775972 16.07038578 4.70340824 15.1309875 3.5625 14.1875 C2.92441406 13.66542969 2.28632812 13.14335938 1.62890625 12.60546875 C-0.97101376 10.04295766 -1.00112365 7.96741411 -1.125 4.375 C-1 1 -1 1 0 0 Z " fill="#F5F5F3" transform="translate(45,35)"/>
<path d="M0 0 C4.43843439 1.39493652 6.9434964 3.51898201 10 7 C10.33 7.99 10.66 8.98 11 10 C10.01 10 9.02 10 8 10 C7.484375 9.21625 6.96875 8.4325 6.4375 7.625 C2.89363761 3.80853281 -0.98105507 3.64173532 -6 3 C-6 2.67 -6 2.34 -6 2 C-4.02 1.67 -2.04 1.34 0 1 C0 0.67 0 0.34 0 0 Z " fill="#E7E3D8" transform="translate(61,24)"/>
<path d="M0 0 C3.11223004 3.65806731 4.81550196 7.75570185 6.6875 12.125 C7.00783203 12.85332031 7.32816406 13.58164063 7.65820312 14.33203125 C10 19.73464152 10 19.73464152 10 22 C9.34 22 8.68 22 8 22 C7.59007812 20.95199219 7.18015625 19.90398437 6.7578125 18.82421875 C6.21372561 17.44523991 5.66944462 16.06633764 5.125 14.6875 C4.72087891 13.65206055 4.72087891 13.65206055 4.30859375 12.59570312 C3.07826333 9.48986901 1.86011537 6.79017305 0 4 C0 2.68 0 1.36 0 0 Z " fill="#DFBA4A" transform="translate(246,53)"/>
<path d="M0 0 C1.65 0 3.3 0 5 0 C5 2.31 5 4.62 5 7 C3.35 7 1.7 7 0 7 C-1.125 2.25 -1.125 2.25 0 0 Z " fill="#FBF4E1" transform="translate(52,103)"/>
<path d="M0 0 C0.99 0 1.98 0 3 0 C3.83705954 3.99928449 4.24068023 7.07117928 3 11 C2.02615879 12.35255724 1.02896947 13.68889374 0 15 C-0.19517554 13.06325815 -0.38087873 11.12555991 -0.5625 9.1875 C-0.66691406 8.10855469 -0.77132812 7.02960938 -0.87890625 5.91796875 C-1 3 -1 3 0 0 Z " fill="#2F4D88" transform="translate(182,96)"/>
<path d="M0 0 C1.9453125 -0.29296875 1.9453125 -0.29296875 4.125 -0.1875 C5.40375 -0.125625 6.6825 -0.06375 8 0 C8 0.33 8 0.66 8 1 C5.69 1.33 3.38 1.66 1 2 C-0.18039922 6.58555003 -0.18039922 6.58555003 1.125 10.875 C3.39210885 12.23526531 5.39376858 12.64780657 8 13 C8 13.33 8 13.66 8 14 C6.72125 14.061875 5.4425 14.12375 4.125 14.1875 C3.40570313 14.22230469 2.68640625 14.25710937 1.9453125 14.29296875 C1.30335938 14.19628906 0.66140625 14.09960938 0 14 C-1.99825961 11.00261059 -2.27550398 10.36652492 -2.25 7 C-2.25515625 6.319375 -2.2603125 5.63875 -2.265625 4.9375 C-2 3 -2 3 0 0 Z " fill="#F4D895" transform="translate(336,65)"/>
<path d="M0 0 C0.99 0.33 1.98 0.66 3 1 C2.46890625 1.45890625 1.9378125 1.9178125 1.390625 2.390625 C-2.18324699 5.49493717 -5.71854059 8.58181312 -9 12 C-8.58424938 7.14957612 -6.58340022 5.15680495 -3 2 C-2.01 1.34 -1.02 0.68 0 0 Z " fill="#EAECED" transform="translate(53,60)"/>
<path d="M0 0 C0.33 0 0.66 0 1 0 C1.10957031 0.75925781 1.21914063 1.51851562 1.33203125 2.30078125 C1.49058594 3.29464844 1.64914063 4.28851563 1.8125 5.3125 C1.96332031 6.29863281 2.11414062 7.28476563 2.26953125 8.30078125 C3.04755496 11.17572449 3.83386554 12.07125014 6 14 C6 14.66 6 15.32 6 16 C3.3754772 15.00449135 2.04971273 14.06036546 0.25 11.875 C-1.44285311 7.98143785 -1.28186861 5.22802909 -1 1 C-0.67 0.67 -0.34 0.34 0 0 Z " fill="#F9F8F6" transform="translate(45,141)"/>
<path d="M0 0 C0.66 0.33 1.32 0.66 2 1 C-0.3115727 7.56973294 -0.3115727 7.56973294 -3.5 9.5625 C-6 10 -6 10 -9 8 C-8.071875 7.4225 -7.14375 6.845 -6.1875 6.25 C-3.40184158 4.28365288 -1.81261304 2.81962028 0 0 Z " fill="#F1CF7C" transform="translate(247,143)"/>
<path d="M0 0 C5.03762693 4.08456238 6.93847967 8.60921432 8 15 C7.67 15.99 7.34 16.98 7 18 C3.36738787 12.38596307 1.78384864 6.37088799 0 0 Z " fill="#F9ECCB" transform="translate(238,50)"/>
<path d="M0 0 C1.65 0 3.3 0 5 0 C5 2.31 5 4.62 5 7 C3.35 7 1.7 7 0 7 C0 4.69 0 2.38 0 0 Z " fill="#FCF5E3" transform="translate(340,103)"/>
<path d="M0 0 C2.643915 1.3219575 2.97744456 2.23095607 4 5 C4.1953125 8.453125 4.1953125 8.453125 4.125 12.25 C4.10695313 13.51328125 4.08890625 14.7765625 4.0703125 16.078125 C4.04710937 17.04234375 4.02390625 18.0065625 4 19 C3.67 19 3.34 19 3 19 C2.86722656 18.22914062 2.73445312 17.45828125 2.59765625 16.6640625 C2.42105469 15.66117188 2.24445313 14.65828125 2.0625 13.625 C1.88847656 12.62726563 1.71445313 11.62953125 1.53515625 10.6015625 C1.12287938 8.03090344 1.12287938 8.03090344 0 6 C-0.039992 4.00039988 -0.04346799 1.99952758 0 0 Z " fill="#F4DA9A" transform="translate(252,75)"/>
<path d="M0 0 C0.33 0 0.66 0 1 0 C1.17015625 0.61488281 1.3403125 1.22976562 1.515625 1.86328125 C2.9672897 6.97327748 2.9672897 6.97327748 6.1875 11.0625 C6.785625 11.371875 7.38375 11.68125 8 12 C7.67 12.99 7.34 13.98 7 15 C0.34511684 10.10005992 0.34511684 10.10005992 -1 5.8125 C-1 3 -1 3 0 0 Z " fill="#F4F3F1" transform="translate(325,37)"/>
<path d="M0 0 C1.2640688 3.79220639 0.5071619 5.31378898 -0.75 9.0625 C-1.09546875 10.12597656 -1.4409375 11.18945312 -1.796875 12.28515625 C-3 15 -3 15 -6 17 C-5.57312017 15.10174715 -5.13300518 13.20646817 -4.6875 11.3125 C-4.44386719 10.25675781 -4.20023438 9.20101562 -3.94921875 8.11328125 C-3.00739175 5.02424372 -1.77627063 2.68182036 0 0 Z " fill="#F7E3B2" transform="translate(254,120)"/>
<path d="M0 0 C1.98 0 3.96 0 6 0 C6.02689216 1.47906892 6.04634621 2.95827483 6.0625 4.4375 C6.07410156 5.26121094 6.08570313 6.08492188 6.09765625 6.93359375 C6 9 6 9 5 10 C2 10.125 2 10.125 -1 10 C-2 9 -2 9 -2.0625 6.4375 C-2.041875 5.633125 -2.02125 4.82875 -2 4 C-1.01 5.485 -1.01 5.485 0 7 C2.56282742 7.72965366 2.56282742 7.72965366 5 8 C5 5.69 5 3.38 5 1 C3.35 1 1.7 1 0 1 C0 0.67 0 0.34 0 0 Z " fill="#F8E7BE" transform="translate(52,102)"/>
<path d="M0 0 C4.38249366 1.33909529 6.57949251 3.08994944 9 7 C8.75 9.3125 8.75 9.3125 8 11 C5 7.25 5 7.25 5 5 C3.35 4.67 1.7 4.34 0 4 C-0.33 3.01 -0.66 2.02 -1 1 C-0.67 0.67 -0.34 0.34 0 0 Z " fill="#F6E1AE" transform="translate(195,151)"/>
<path d="M0 0 C0.66 0 1.32 0 2 0 C2.33 0.66 2.66 1.32 3 2 C5.02463255 2.65213292 5.02463255 2.65213292 7 3 C7.33 4.65 7.66 6.3 8 8 C7.67 7.34 7.34 6.68 7 6 C5.35 6.33 3.7 6.66 2 7 C0 4 0 4 0 0 Z " fill="#DDC78B" transform="translate(190,143)"/>
<path d="M0 0 C1.65 0 3.3 0 5 0 C5 1.98 5 3.96 5 6 C3.35 6 1.7 6 0 6 C0 4.02 0 2.04 0 0 Z " fill="#FCF6E6" transform="translate(340,139)"/>
<path d="M0 0 C1.98 0 3.96 0 6 0 C4.68 0.33 3.36 0.66 2 1 C2 3.31 2 5.62 2 8 C3.65 8 5.3 8 7 8 C7 8.33 7 8.66 7 9 C4.69 9 2.38 9 0 9 C-0.84454356 5.62182575 -1.10844919 3.32534757 0 0 Z " fill="#F8E8C1" transform="translate(338,102)"/>
<path d="M0 0 C1.65 0 3.3 0 5 0 C5 1.98 5 3.96 5 6 C3.35 6 1.7 6 0 6 C0 4.02 0 2.04 0 0 Z " fill="#FCF5E5" transform="translate(340,67)"/>
<path d="M0 0 C0.66 0 1.32 0 2 0 C1.875 1.75 1.875 1.75 1 4 C-4.22222222 8 -4.22222222 8 -7 8 C-7 7.01 -7 6.02 -7 5 C-4.625 3.4375 -4.625 3.4375 -2 2 C-1.34 1.34 -0.68 0.68 0 0 Z " fill="#E6E6E6" transform="translate(348,152)"/>
<path d="M0 0 C0.66 0 1.32 0 2 0 C1.84759391 2.66710654 1.50635081 4.4505871 -0.33203125 6.4453125 C-4.50625 10 -4.50625 10 -7 10 C-5.76551991 6.29655972 -3.76665659 4.69749018 -1 2 C-0.67 1.34 -0.34 0.68 0 0 Z " fill="#F3F2EF" transform="translate(349,78)"/>
<path d="M0 0 C3.3 0 6.6 0 10 0 C10 0.99 10 1.98 10 3 C7.03 3 4.06 3 1 3 C0.67 2.01 0.34 1.02 0 0 Z " fill="#E5E2DB" transform="translate(333,50)"/>
<path d="M0 0 C3.50886032 1.40354413 4.4267148 2.64365823 6 6 C6.99 6.66 7.98 7.32 9 8 C5.625 7.75 5.625 7.75 2 7 C0.05758039 4.4664092 0 3.21812786 0 0 Z " fill="#FBF1D9" transform="translate(198,160)"/>
<path d="M0 0 C0.66 0 1.32 0 2 0 C2.04125 0.886875 2.0825 1.77375 2.125 2.6875 C3.32128554 7.21629527 5.26271887 8.29643492 9 11 C8.01 11.33 7.02 11.66 6 12 C2.59156258 9.11593757 1.13408616 7.6291735 0.1875 3.1875 C0.125625 2.135625 0.06375 1.08375 0 0 Z " fill="#EDC254" transform="translate(46,73)"/>
<path d="M0 0 C0.99 0.33 1.98 0.66 3 1 C0.48592381 5.28324091 -1.12314139 7.64531705 -6 9 C-6 8.01 -6 7.02 -6 6 C-4.37064759 4.62131719 -2.70250393 3.28725907 -1 2 C-0.67 1.34 -0.34 0.68 0 0 Z " fill="#EBEBEB" transform="translate(349,43)"/>
<path d="M0 0 C0.99 0.33 1.98 0.66 3 1 C0.48592381 5.28324091 -1.12314139 7.64531705 -6 9 C-6 8.01 -6 7.02 -6 6 C-4.37064759 4.62131719 -2.70250393 3.28725907 -1 2 C-0.67 1.34 -0.34 0.68 0 0 Z " fill="#ECECEA" transform="translate(69,43)"/>
<path d="M0 0 C0.33 0.99 0.66 1.98 1 3 C-1.80804268 5.96404505 -4.18315774 8.44499019 -8 10 C-8 9.01 -8 8.02 -8 7 C-6.34928604 5.97388051 -4.68029994 4.97691857 -3 4 C-1.21655822 1.93045153 -1.21655822 1.93045153 0 0 Z " fill="#F1D07D" transform="translate(222,44)"/>
<path d="M0 0 C0.928125 1.175625 0.928125 1.175625 1.875 2.375 C3.89858661 4.96837647 3.89858661 4.96837647 6 7 C5.67 7.99 5.34 8.98 5 10 C0.22632794 6.69515012 0.22632794 6.69515012 -0.875 3.3125 C-0.91625 2.549375 -0.9575 1.78625 -1 1 C-0.67 0.67 -0.34 0.34 0 0 Z " fill="#EBEAE6" transform="translate(326,113)"/>
<path d="M0 0 C2.37948772 0.17625835 3.70225849 0.69719773 5.37890625 2.40234375 C6.62115486 3.90649092 7.81376056 5.45129851 9 7 C8.01 7.33 7.02 7.66 6 8 C1.125 3.375 1.125 3.375 0 0 Z " fill="#F2F1EE" transform="translate(63,97)"/>
<path d="M0 0 C0.66 0 1.32 0 2 0 C0.25 3.875 0.25 3.875 -2 5 C-4.3329866 5.04022391 -6.66706666 5.04320247 -9 5 C-9 5.66 -9 6.32 -9 7 C-9.99 6.67 -10.98 6.34 -12 6 C-11.34 6 -10.68 6 -10 6 C-10 5.01 -10 4.02 -10 3 C-7.03 3 -4.06 3 -1 3 C-0.67 2.01 -0.34 1.02 0 0 Z " fill="#EEC762" transform="translate(345,79)"/>
<path d="M0 0 C0.33 0 0.66 0 1 0 C1.66 3.96 2.32 7.92 3 12 C2.01 12 1.02 12 0 12 C-1.29449495 8.11651516 -1.13203312 5.09302664 -1 1 C-0.67 0.67 -0.34 0.34 0 0 Z " fill="#F9F8F5" transform="translate(45,105)"/>
<path d="M0 0 C1.65 0 3.3 0 5 0 C5 1.65 5 3.3 5 5 C3.35 5 1.7 5 0 5 C0 3.35 0 1.7 0 0 Z " fill="#FCF7E8" transform="translate(51,68)"/>
<path d="M0 0 C0.66 0 1.32 0 2 0 C2.05395478 1.62463842 2.09277195 3.24978541 2.125 4.875 C2.14820313 5.77992188 2.17140625 6.68484375 2.1953125 7.6171875 C2 10 2 10 0 12 C-1.03159626 8.90521121 -0.97482862 7.47368607 -0.5625 4.3125 C-0.46066406 3.50425781 -0.35882813 2.69601563 -0.25390625 1.86328125 C-0.17011719 1.24839844 -0.08632813 0.63351563 0 0 Z " fill="#FAF7EF" transform="translate(350,141)"/>
<path d="M0 0 C1 3 1 3 0.22265625 4.82421875 C-0.8515625 6.54947917 -1.92578125 8.27473958 -3 10 C-3.66 10 -4.32 10 -5 10 C-3.125 4.25 -3.125 4.25 -2 2 C-1.34 2 -0.68 2 0 2 C0 1.34 0 0.68 0 0 Z " fill="#EEC660" transform="translate(252,139)"/>
<path d="M0 0 C1.90318884 2.85478326 2.4619099 4.41941308 3.125 7.6875 C3.29257813 8.49574219 3.46015625 9.30398437 3.6328125 10.13671875 C3.75398437 10.75160156 3.87515625 11.36648437 4 12 C1.9754262 10.06745228 0.57894208 8.36841312 -1 6 C-0.625 2.8125 -0.625 2.8125 0 0 Z " fill="#314B80" transform="translate(187,135)"/>
<path d="M0 0 C0.66 0.33 1.32 0.66 2 1 C1.34 2.32 0.68 3.64 0 5 C-3.3 4.67 -6.6 4.34 -10 4 C-10 3.67 -10 3.34 -10 3 C-8.63875 2.814375 -8.63875 2.814375 -7.25 2.625 C-4.08163995 2.16750266 -4.08163995 2.16750266 -1.75 0.875 C-0.88375 0.441875 -0.88375 0.441875 0 0 Z " fill="#48649A" transform="translate(321,206)"/>
<path d="M0 0 C0.66 0 1.32 0 2 0 C3.125 2.25 3.125 2.25 4 5 C3.125 7.3125 3.125 7.3125 2 9 C1.34 9 0.68 9 0 9 C0 6.03 0 3.06 0 0 Z " fill="#FCF9F1" transform="translate(70,34)"/>
<path d="M0 0 C0.99 0.99 1.98 1.98 3 3 C3 3.66 3 4.32 3 5 C2.34 5 1.68 5 1 5 C1 8.3 1 11.6 1 15 C0.67 15 0.34 15 0 15 C0 10.05 0 5.1 0 0 Z " fill="#DADFEA" transform="translate(263,210)"/>
<path d="M0 0 C0.33 0.99 0.66 1.98 1 3 C-0.21484375 5.04296875 -0.21484375 5.04296875 -1.9375 7.1875 C-2.50339844 7.90292969 -3.06929687 8.61835938 -3.65234375 9.35546875 C-4.09707031 9.89816406 -4.54179687 10.44085938 -5 11 C-5.33 10.34 -5.66 9.68 -6 9 C-4.87952194 5.63856582 -3.50292817 4.42471166 -1 2 C-0.67 1.34 -0.34 0.68 0 0 Z " fill="#EEC240" transform="translate(252,143)"/>
<path d="M0 0 C0.33 0.99 0.66 1.98 1 3 C-0.40445835 5.2636564 -2.1967913 7.0208685 -4 9 C-4.33 8.01 -4.66 7.02 -5 6 C-3.59554165 3.7363436 -1.8032087 1.9791315 0 0 Z " fill="#F1F1F0" transform="translate(329,27)"/>
<path d="M0 0 C2.25245881 2.68841859 3.88213958 4.64641875 5 8 C2.53199953 6.84826645 0.95216435 5.95216435 -1 4 C-0.625 1.875 -0.625 1.875 0 0 Z " fill="#F8F5ED" transform="translate(326,149)"/>
<path d="M0 0 C2.64 0.33 5.28 0.66 8 1 C8.33 1.99 8.66 2.98 9 4 C2.25 4.125 2.25 4.125 0 3 C0 2.01 0 1.02 0 0 Z " fill="#CED1D6" transform="translate(52,85)"/>
<path d="M0 0 C2.56687367 3.8503105 1.83288724 5.58569763 1 10 C0.01 10 -0.98 10 -2 10 C-1.34 6.7 -0.68 3.4 0 0 Z " fill="#F3EEE1" transform="translate(70,72)"/>
<path d="M0 0 C1.32 0 2.64 0 4 0 C4 1.65 4 3.3 4 5 C2.68 5 1.36 5 0 5 C0 3.35 0 1.7 0 0 Z " fill="#FDF8EC" transform="translate(341,32)"/>
<path d="M0 0 C0.33 0 0.66 0 1 0 C1.20086443 3.71599191 1.1519437 4.77208445 -1 8 C-1.66 8 -2.32 8 -3 8 C-3.33 8.66 -3.66 9.32 -4 10 C-3.29445932 6.33118845 -1.72264494 3.29549466 0 0 Z " fill="#F1CF79" transform="translate(253,133)"/>
<path d="M0 0 C3.625 -0.1875 3.625 -0.1875 7 0 C7.33 0.66 7.66 1.32 8 2 C4.7 2.33 1.4 2.66 -2 3 C-1.34 2.01 -0.68 1.02 0 0 Z " fill="#F1F2F5" transform="translate(54,24)"/>
<path d="M0 0 C0.6875 1.8125 0.6875 1.8125 1 4 C-0.4375 5.75 -0.4375 5.75 -2 7 C-2.33 5.35 -2.66 3.7 -3 2 C-2.01 1.34 -1.02 0.68 0 0 Z " fill="#DFBA52" transform="translate(246,150)"/>
<path d="M0 0 C-0.33 0.99 -0.66 1.98 -1 3 C-4.3 2.34 -7.6 1.68 -11 1 C-11 0.67 -11 0.34 -11 0 C-3.57142857 -1.28571429 -3.57142857 -1.28571429 0 0 Z " fill="#F5ECD7" transform="translate(346,133)"/>
<path d="M0 0 C2 1 4 2 6 3 C6 3.99 6 4.98 6 6 C3.37812506 4.95125002 2.20628639 4.35068687 0.75 1.875 C0.5025 1.25625 0.255 0.6375 0 0 Z " fill="#EBEDF0" transform="translate(46,81)"/>
</svg>
