<?xml version="1.0" encoding="UTF-8"?>
<svg version="1.1" xmlns="http://www.w3.org/2000/svg" width="225" height="225">
<path d="M0 0 C74.25 0 148.5 0 225 0 C225 74.25 225 148.5 225 225 C150.75 225 76.5 225 0 225 C0 150.75 0 76.5 0 0 Z " fill="#D01D2E" transform="translate(0,0)"/>
<path d="M0 0 C74.25 0 148.5 0 225 0 C225 21.45 225 42.9 225 65 C150.75 65 76.5 65 0 65 C0 43.55 0 22.1 0 0 Z " fill="#FEFEFE" transform="translate(0,160)"/>
<path d="M0 0 C74.25 0 148.5 0 225 0 C225 21.45 225 42.9 225 65 C150.75 65 76.5 65 0 65 C0 43.55 0 22.1 0 0 Z " fill="#FFFFFF" transform="translate(0,0)"/>
<path d="M0 0 C32.67 0 65.34 0 99 0 C99 31.35 99 62.7 99 95 C66.33 95 33.66 95 0 95 C0 63.65 0 32.3 0 0 Z " fill="#FDCC01" transform="translate(0,65)"/>
<path d="M0 0 C2.31 1.98 4.62 3.96 7 6 C23.54587943 17.74608377 50.10139321 17.02652117 69.1875 13.8125 C79.61675052 11.7957941 88.22412853 8.22681752 96.35546875 1.35546875 C98 0 98 0 99 0 C99 14.52 99 29.04 99 44 C66.33 44 33.66 44 0 44 C0 29.48 0 14.96 0 0 Z " fill="#FDCC01" transform="translate(0,116)"/>
<path d="M0 0 C0.99257812 0.31195313 1.98515625 0.62390625 3.0078125 0.9453125 C8.85712687 3.02312865 15.1100565 6.220113 18 12 C18.5665174 16.77493239 18.66144717 19.79060371 15.6875 23.6875 C5.21876652 34.57896144 -12.97243409 35.96821948 -27.18505859 36.34057617 C-42.83701771 36.52384525 -63.03624594 35.9013216 -75 24.3125 C-75.66 23.549375 -76.32 22.78625 -77 22 C-77.66 21.34 -78.32 20.68 -79 20 C-79.63435814 16.47578809 -79.63272908 14.07421529 -77.78515625 10.9375 C-61.3863725 -9.43557722 -22.42412668 -7.24164447 0 0 Z " fill="#05678D" transform="translate(79,96)"/>
<path d="M0 0 C7.03087123 3.92594296 11.44078842 9.28879803 13.83984375 17.02734375 C14.89352241 24.72659221 14.58655797 31.67512325 9.83984375 38.02734375 C4.9016368 44.07786959 0.24347241 47.5352621 -7.5859375 48.41015625 C-15.10384558 48.75771783 -20.81684949 48.33041816 -27.06640625 43.9453125 C-32.52561908 38.94442911 -35.80340369 33.44873608 -36.3984375 26.07421875 C-36.58424504 17.82045215 -36.08204685 12.23848441 -30.359375 6.09375 C-21.77011589 -1.92845122 -11.09468485 -4.92340821 0 0 Z " fill="#FDFBFB" transform="translate(174.16015625,71.97265625)"/>
<path d="M0 0 C1.32 0 2.64 0 4 0 C4 2.31 4 4.62 4 7 C6.64 7 9.28 7 12 7 C12.36075949 11.44936709 12.36075949 11.44936709 10.8125 13.8125 C9 15 9 15 4 15 C4.33 18.96 4.66 22.92 5 27 C6.98 27 8.96 27 11 27 C11.125 29.875 11.125 29.875 11 33 C8.50959058 35.49040942 7.56845643 35.32391014 4.125 35.375 C0.56303656 35.31332098 -0.62450281 35.27475404 -3.5625 33.125 C-6.87326629 28.23082375 -6.29761281 23.45988059 -6.375 17.6875 C-6.41238281 16.64142578 -6.44976562 15.59535156 -6.48828125 14.51757812 C-6.57507467 6.94244112 -6.57507467 6.94244112 -4.89550781 4.18994141 C-3.5390625 2.83203125 -3.5390625 2.83203125 -1 1 C-0.67 0.67 -0.34 0.34 0 0 Z " fill="#C5192D" transform="translate(160,76)"/>
<path d="M0 0 C2.97 0 5.94 0 9 0 C9.33 2.31 9.66 4.62 10 7 C11.32 4.69 12.64 2.38 14 0 C16.64 0 19.28 0 22 0 C20.4375 16.5625 20.4375 16.5625 17 20 C15.35 20 13.7 20 12 20 C12.66 16.37 13.32 12.74 14 9 C12.35 12.63 10.7 16.26 9 20 C7.35 20 5.7 20 4 20 C3.67 18.35 3.34 16.7 3 15 C2.01 17.475 2.01 17.475 1 20 C-0.65 20 -2.3 20 -4 20 C-3.42978625 13.04339229 -1.98697306 6.68572695 0 0 Z " fill="#F1F6F8" transform="translate(22,102)"/>
<path d="M0 0 C1.98 0 3.96 0 6 0 C6.66 2.31 7.32 4.62 8 7 C8.99 4.69 9.98 2.38 11 0 C12.65 0 14.3 0 16 0 C15.34034961 6.86036401 13.7637236 13.34443923 12 20 C10.02 20 8.04 20 6 20 C4.50178941 16.62902617 4 14.79557881 4 11 C3.34 11 2.68 11 2 11 C1.855625 12.299375 1.71125 13.59875 1.5625 14.9375 C1.125 18.875 1.125 18.875 0 20 C-1.66617115 20.04063832 -3.33388095 20.042721 -5 20 C-3.90109517 13.08336373 -2.43430815 6.57263201 0 0 Z " fill="#F2F7F8" transform="translate(64,102)"/>
<path d="M0 0 C2.9375 1.625 2.9375 1.625 5 4 C5.4375 7.125 5.4375 7.125 5 10 C3 12 3 12 0.8359375 12.1953125 C-0.38222656 12.16050781 -0.38222656 12.16050781 -1.625 12.125 C-2.44226563 12.10695312 -3.25953125 12.08890625 -4.1015625 12.0703125 C-4.72804687 12.04710937 -5.35453125 12.02390625 -6 12 C-5.67 12.66 -5.34 13.32 -5 14 C-2.03 14 0.94 14 4 14 C3.625 16.4375 3.625 16.4375 3 19 C-0.20173254 20.60086627 -3.52577059 20.49917089 -7 20 C-9.8100346 18.20636089 -11.50940468 16.98119065 -13 14 C-13.5811138 6.91041162 -13.5811138 6.91041162 -11.125 3.0625 C-7.52072687 -0.4357651 -4.96784874 -0.42100413 0 0 Z " fill="#F9EAEB" transform="translate(164,135)"/>
<path d="M0 0 C2.8125 1.0625 2.8125 1.0625 5 3 C5.8125 6.6875 5.8125 6.6875 6 10 C2.79619983 12.13586678 1.98060033 12.23132175 -1.6875 12.125 C-2.49574219 12.10695312 -3.30398437 12.08890625 -4.13671875 12.0703125 C-5.05904297 12.03550781 -5.05904297 12.03550781 -6 12 C-5.67 12.66 -5.34 13.32 -5 14 C-2.03 14 0.94 14 4 14 C3.625 16.4375 3.625 16.4375 3 19 C-0.21694364 20.60847182 -3.52137222 20.61309149 -7 20 C-10.61391202 17.07811368 -12.74312565 14.88374526 -13.375 10.25 C-12.8528401 5.7246142 -11.15770622 4.2328897 -8 1 C-5.17998673 -0.41000664 -3.12992745 -0.24548451 0 0 Z " fill="#F9E9E9" transform="translate(130,135)"/>
<path d="M0 0 C2.9375 1.625 2.9375 1.625 5 4 C5.4375 7.125 5.4375 7.125 5 10 C3 12 3 12 0.6171875 12.1953125 C-0.28773438 12.17210937 -1.19265625 12.14890625 -2.125 12.125 C-3.49011719 12.09792969 -3.49011719 12.09792969 -4.8828125 12.0703125 C-5.58148438 12.04710937 -6.28015625 12.02390625 -7 12 C-7 12.66 -7 13.32 -7 14 C-3.37 14 0.26 14 4 14 C3 18 3 18 0 20 C-4.21178243 20.46797583 -6.28599114 20.46565795 -9.875 18.125 C-12.80038857 15.19961143 -12.96503325 14.42659437 -13.3125 10.1875 C-13.28232024 6.86772673 -13.0060988 6.00955479 -11.125 3.0625 C-7.52072687 -0.4357651 -4.96784874 -0.42100413 0 0 Z " fill="#F9EBEC" transform="translate(203,135)"/>
<path d="M0 0 C1.9375 1.25 1.9375 1.25 3 3 C2.6875 5.1875 2.6875 5.1875 2 7 C-0.31 7 -2.62 7 -5 7 C-5 8.98 -5 10.96 -5 13 C-2.36 13 0.28 13 3 13 C2.6875 15.375 2.6875 15.375 2 18 C-1.51253146 20.34168764 -2.86469356 20.49623677 -7 20 C-9.69990662 18.20006226 -11.5418865 16.916227 -13 14 C-13.70153846 6.86769231 -13.70153846 6.86769231 -10.625 3.0625 C-6.83919794 0.08794124 -4.82114645 -0.39356298 0 0 Z " fill="#FAEEEF" transform="translate(185,135)"/>
<path d="M0 0 C2.375 -0.125 2.375 -0.125 5 0 C7 2 7 2 7.22705078 3.87939453 C7.21657715 4.62302246 7.20610352 5.36665039 7.1953125 6.1328125 C7.18886719 6.93847656 7.18242187 7.74414062 7.17578125 8.57421875 C7.15902344 9.41597656 7.14226562 10.25773438 7.125 11.125 C7.11597656 11.97449219 7.10695312 12.82398438 7.09765625 13.69921875 C7.07405647 15.79959884 7.03818483 17.89983444 7 20 C8.32 20 9.64 20 11 20 C10.125 24.875 10.125 24.875 9 26 C5.9942468 26.40618287 4.45493883 26.27824752 1.84765625 24.68359375 C-1.13099475 20.35730784 -0.41867069 15.86201944 -0.25 10.75 C-0.23195312 9.71875 -0.21390625 8.6875 -0.1953125 7.625 C-0.14822712 5.08238936 -0.0824805 2.54166838 0 0 Z " fill="#FAEFEF" transform="translate(211,129)"/>
<path d="M0 0 C0 1.65 0 3.3 0 5 C1.65 5 3.3 5 5 5 C4.67 6.65 4.34 8.3 4 10 C2.68 10 1.36 10 0 10 C0 12.64 0 15.28 0 18 C1.65 18 3.3 18 5 18 C4.125 22.875 4.125 22.875 3 24 C-3.6 23.4 -3.6 23.4 -6 21 C-6.44360072 18.04147891 -6.32412652 15.05051549 -6.3125 12.0625 C-6.32861328 11.23814453 -6.34472656 10.41378906 -6.36132812 9.56445312 C-6.36197266 8.77103516 -6.36261719 7.97761719 -6.36328125 7.16015625 C-6.36626221 6.43449463 -6.36924316 5.70883301 -6.37231445 4.96118164 C-5.63513632 1.07806561 -3.80766664 0 0 0 Z " fill="#FCF7F7" transform="translate(110,131)"/>
<path d="M0 0 C0.99 0.33 1.98 0.66 3 1 C3.92088257 4.83546041 4.05335412 8.24101261 3.87890625 12.17578125 C3.83056641 13.33271484 3.78222656 14.48964844 3.73242188 15.68164062 C3.67634766 16.87982422 3.62027344 18.07800781 3.5625 19.3125 C3.51029297 20.53001953 3.45808594 21.74753906 3.40429688 23.00195312 C3.27490121 26.00157979 3.13994552 29.00085006 3 32 C1.125 31.75 1.125 31.75 -1 31 C-4.20411582 26.491492 -3.32879412 20.78581301 -3.3125 15.5 C-3.32861328 14.45457031 -3.34472656 13.40914062 -3.36132812 12.33203125 C-3.36197266 11.32527344 -3.36261719 10.31851563 -3.36328125 9.28125 C-3.36626221 8.36408203 -3.36924316 7.44691406 -3.37231445 6.50195312 C-2.93658182 3.57382982 -1.93939151 2.192272 0 0 Z " fill="#BB2333" transform="translate(157,78)"/>
<path d="M0 0 C4.875 0.875 4.875 0.875 6 2 C6.08631874 3.34267413 6.10706473 4.68974322 6.09765625 6.03515625 C6.09282227 7.24848633 6.09282227 7.24848633 6.08789062 8.48632812 C6.07951172 9.33646484 6.07113281 10.18660156 6.0625 11.0625 C6.05798828 11.91650391 6.05347656 12.77050781 6.04882812 13.65039062 C6.03700373 15.76695663 6.01906769 17.88348685 6 20 C7.65 20 9.3 20 11 20 C10.125 24.875 10.125 24.875 9 26 C5.5625 25.75 5.5625 25.75 2 25 C-0.20192224 21.69711664 -0.23959968 20.72537273 -0.1953125 16.89453125 C-0.18886719 15.91162109 -0.18242187 14.92871094 -0.17578125 13.91601562 C-0.15902344 12.89185547 -0.14226562 11.86769531 -0.125 10.8125 C-0.11597656 9.77673828 -0.10695312 8.74097656 -0.09765625 7.67382812 C-0.0740786 5.11565315 -0.0411703 2.55794252 0 0 Z " fill="#FCF6F7" transform="translate(139,129)"/>
<path d="M0 0 C5.28 0 10.56 0 16 0 C15.67 1.65 15.34 3.3 15 5 C13.35 5 11.7 5 10 5 C9.690625 6.258125 9.38125 7.51625 9.0625 8.8125 C8.46021952 11.26177394 7.79911359 13.60265923 7 16 C5.02 16 3.04 16 1 16 C1.66 12.7 2.32 9.4 3 6 C1.68 5.67 0.36 5.34 -1 5 C-0.67 3.35 -0.34 1.7 0 0 Z " fill="#F4CA08" transform="translate(46,102)"/>
<path d="M0 0 C1.32 0 2.64 0 4 0 C4 2.31 4 4.62 4 7 C6.64 7 9.28 7 12 7 C12.36075949 11.44936709 12.36075949 11.44936709 10.8125 13.8125 C9 15 9 15 4 15 C4 18.63 4 22.26 4 26 C3.67 26 3.34 26 3 26 C3 22.04 3 18.08 3 14 C3.99 13.67 4.98 13.34 6 13 C5.65213292 11.02463255 5.65213292 11.02463255 5 9 C4.34 8.67 3.68 8.34 3 8 C3 5.69 3 3.38 3 1 C2.01 0.67 1.02 0.34 0 0 Z " fill="#DD535F" transform="translate(160,76)"/>
<path d="M0 0 C0.33 0.99 0.66 1.98 1 3 C1.66 3 2.32 3 3 3 C3.33 4.98 3.66 6.96 4 9 C2.34385343 9.38218767 0.67542976 9.71395102 -1 10 C-1.33 9.67 -1.66 9.34 -2 9 C-4.67058851 8.85884839 -7.32432238 8.95752893 -10 9 C-10.33 8.01 -10.66 7.02 -11 6 C-6.545 5.505 -6.545 5.505 -2 5 C-1.34 3.35 -0.68 1.7 0 0 Z " fill="#D02D3C" transform="translate(169,141)"/>
<path d="M0 0 C0.66 0.33 1.32 0.66 2 1 C2.73168029 3.97549984 3.22580593 6.01820373 3 9 C1 11.5 1 11.5 -2 13 C-7.98550725 13.50724638 -7.98550725 13.50724638 -11 12 C-11 11.34 -11 10.68 -11 10 C-10.28972656 9.93941406 -9.57945312 9.87882813 -8.84765625 9.81640625 C-7.92855469 9.73261719 -7.00945312 9.64882812 -6.0625 9.5625 C-5.14597656 9.48128906 -4.22945312 9.40007812 -3.28515625 9.31640625 C-1.03840268 9.23955024 -1.03840268 9.23955024 0 8 C0.07148199 6.64756083 0.08399454 5.29165633 0.0625 3.9375 C0.041875 2.638125 0.02125 1.33875 0 0 Z " fill="#D02B3C" transform="translate(207,137)"/>
<path d="M0 0 C2.31 0 4.62 0 7 0 C7 1.98 7 3.96 7 6 C5.1875 7.0625 5.1875 7.0625 3 8 C2.01 7.67 1.02 7.34 0 7 C0 4.69 0 2.38 0 0 Z " fill="#D91E32" transform="translate(164,103)"/>
<path d="M0 0 C-0.66 1.65 -1.32 3.3 -2 5 C-2.66 4.34 -3.32 3.68 -4 3 C-6.68839385 2.73008094 -9.29141936 2.91262643 -12 3 C-12.33 2.01 -12.66 1.02 -13 0 C-11.58456585 -0.19658808 -10.16755969 -0.38187546 -8.75 -0.5625 C-7.96109375 -0.66691406 -7.1721875 -0.77132812 -6.359375 -0.87890625 C-3.99467126 -1.00027349 -2.2488963 -0.69633257 0 0 Z " fill="#D23846" transform="translate(137,147)"/>
<path d="M0 0 C1.98 0 3.96 0 6 0 C5.67 1.32 5.34 2.64 5 4 C3.02 4 1.04 4 -1 4 C-0.67 2.68 -0.34 1.36 0 0 Z " fill="#913344" transform="translate(47,118)"/>
</svg>
