<?xml version="1.0" encoding="UTF-8"?>
<svg version="1.1" xmlns="http://www.w3.org/2000/svg" width="1027" height="320">
<path d="M0 0 C338.91 0 677.82 0 1027 0 C1027 105.6 1027 211.2 1027 320 C688.09 320 349.18 320 0 320 C0 214.4 0 108.8 0 0 Z " fill="#FE7901" transform="translate(0,0)"/>
<path d="M0 0 C6.53153816 3.66098954 11.50723926 8.82882211 13.83984375 16.03125 C15.3704621 26.60643131 13.90594483 32.40888664 7.83984375 41.03125 C4.70144271 44.68672921 1.31935557 48.05932398 -2.11279297 51.43798828 C-3.10959962 52.4336639 -4.10552089 53.43022656 -5.10063171 54.42759705 C-7.77933039 57.10743383 -10.47009641 59.77483819 -13.16335821 62.44002771 C-15.98527917 65.23678303 -18.79572337 68.04502534 -21.60745239 70.85202026 C-26.92227216 76.15445453 -32.24719648 81.44661764 -37.57591259 86.73508251 C-43.64676691 92.76108069 -49.70613899 98.79856946 -55.76461768 104.83700585 C-68.21714813 117.24783235 -80.68387833 129.64429736 -93.16015625 142.03125 C-92.34298126 142.03267502 -91.52580627 142.03410004 -90.68386841 142.03556824 C-82.94597269 142.05346993 -75.20873649 142.09529379 -67.47113228 142.16334057 C-63.49402597 142.19749012 -59.51729886 142.22270161 -55.54003906 142.22680664 C-51.69469344 142.23111573 -47.85020147 142.25979112 -44.00512314 142.30468178 C-42.54532741 142.31757418 -41.08542909 142.32199402 -39.62558365 142.31740379 C-29.56555409 142.29316112 -21.57241324 143.37358653 -13.72265625 150.12890625 C-13.20703125 150.77730469 -12.69140625 151.42570313 -12.16015625 152.09375 C-11.35578125 153.07021484 -11.35578125 153.07021484 -10.53515625 154.06640625 C-5.99284157 160.55727069 -6.41334029 167.38416577 -7.16015625 175.03125 C-9.19342651 181.99338521 -13.0659056 187.15026058 -19.16015625 191.03125 C-26.31445122 194.43303968 -33.44214767 194.47026677 -41.23217773 194.45117188 C-43.15589203 194.46387619 -43.15589203 194.46387619 -45.11846924 194.47683716 C-48.61235679 194.49891753 -52.10600759 194.50199077 -55.59995532 194.50008965 C-58.52720197 194.49996934 -61.45439952 194.50855749 -64.38163239 194.51686716 C-71.29229721 194.53605184 -78.20284125 194.53900277 -85.11352539 194.53222656 C-92.22043609 194.52558577 -99.32682779 194.54846257 -106.43363327 194.58554029 C-112.5570928 194.61631732 -118.68038603 194.62758881 -124.80392128 194.62370348 C-128.45173538 194.62164461 -132.09914514 194.62698071 -135.7468853 194.65159607 C-139.817849 194.67816433 -143.88772771 194.66407478 -147.95874023 194.64648438 C-149.1522963 194.65974762 -150.34585236 194.67301086 -151.57557678 194.68667603 C-160.63060674 194.59604022 -167.22806212 192.46137467 -174.09765625 186.46875 C-174.77828125 185.664375 -175.45890625 184.86 -176.16015625 184.03125 C-176.99546875 183.0721875 -176.99546875 183.0721875 -177.84765625 182.09375 C-180.63056863 177.72060198 -181.41015432 173.32725403 -181.43431091 168.21392822 C-181.44428604 167.07580688 -181.45426117 165.93768555 -181.46453857 164.76507568 C-181.46520325 163.53065735 -181.46586792 162.29623901 -181.46655273 161.02441406 C-181.47487625 159.71311523 -181.48319977 158.40181641 -181.49177551 157.05078125 C-181.51365757 153.46379398 -181.52251106 149.87689193 -181.52760196 146.28984547 C-181.53125344 144.04475976 -181.53749763 141.7996961 -181.54460335 139.55461884 C-181.56907742 131.7105563 -181.58214501 123.86655969 -181.58569336 116.02246094 C-181.58932555 108.72988927 -181.61920309 101.43773924 -181.66109794 94.14529634 C-181.69588071 87.86904799 -181.71124318 81.59293884 -181.71193939 75.31659484 C-181.7127296 71.57482137 -181.72134848 67.8334777 -181.74993706 64.0918045 C-181.78115477 59.91279233 -181.77202012 55.7347743 -181.75952148 51.55566406 C-181.77435577 50.32934265 -181.78919006 49.10302124 -181.80447388 47.83953857 C-181.73297985 39.42308021 -180.23398637 32.49084292 -174.41933346 26.12558365 C-168.29462665 20.38444864 -162.01978191 18.54838266 -153.73828125 18.80859375 C-145.51443682 19.51883486 -139.90101208 23.90919558 -134.5546875 29.859375 C-129.44312202 37.82024449 -129.68891139 45.85273416 -129.6484375 55.03125 C-129.63156752 56.47714744 -129.61341419 57.92303043 -129.59403992 59.36889648 C-129.54678495 63.1499174 -129.51681804 66.93087968 -129.49060059 70.71209717 C-129.46067041 74.58031795 -129.41418331 78.44833715 -129.36914062 82.31640625 C-129.28338686 89.88792025 -129.21591854 97.45944937 -129.16015625 105.03125 C-128.64369349 104.51017827 -128.12723072 103.98910654 -127.59511757 103.45224476 C-115.00483552 90.75135255 -102.40059441 78.06446792 -89.78083229 65.39286518 C-83.67824125 59.26453553 -77.58039554 53.13162241 -71.49365234 46.98754883 C-66.18601165 41.62994015 -60.86952425 36.28129545 -55.54240263 30.9430539 C-52.72422158 28.1183768 -49.9105486 25.28952701 -47.10744095 22.44988441 C-44.46389646 19.77216867 -41.80859614 17.10667934 -39.1441803 14.44973564 C-37.71347184 13.01701565 -36.29517406 11.57193515 -34.87741089 10.12640381 C-25.00624827 0.33304902 -13.79713619 -6.09444053 0 0 Z " fill="#010000" transform="translate(470.16015625,50.96875)"/>
<path d="M0 0 C1.70728775 -0.01279495 1.70728775 -0.01279495 3.44906616 -0.02584839 C4.68865082 -0.02494202 5.92823547 -0.02403564 7.2053833 -0.02310181 C9.17452194 -0.03317764 9.17452194 -0.03317764 11.18344116 -0.04345703 C14.77869475 -0.06109827 18.37385308 -0.0658117 21.96914577 -0.0670886 C24.21840588 -0.06851217 26.46764193 -0.07278572 28.71689606 -0.07808304 C36.57277457 -0.09657923 44.4285853 -0.10475443 52.28448486 -0.10317993 C59.59233266 -0.10197961 66.8998846 -0.12306136 74.20765758 -0.15466726 C80.49321141 -0.18087739 86.77866892 -0.1915452 93.06427693 -0.19026911 C96.81322845 -0.18976074 100.56191711 -0.19537412 104.3108139 -0.21662521 C108.49722783 -0.23970877 112.6829855 -0.23045786 116.8694458 -0.21841431 C118.10093353 -0.22965332 119.33242126 -0.24089233 120.60122681 -0.25247192 C129.38942663 -0.1883346 135.23940304 1.61490209 142.54620361 6.39242554 C149.98513917 14.16949453 151.02794045 22.21633641 150.92730713 32.63656616 C150.93804008 34.58976021 150.93804008 34.58976021 150.94898987 36.58241272 C150.96737658 40.12603163 150.95464736 43.66889026 150.93489957 47.21247673 C150.91840529 50.93803531 150.92734084 54.66354979 150.93241882 58.38912964 C150.93692784 64.64311743 150.9211444 70.89680497 150.89312744 77.15072632 C150.86108073 84.35929608 150.86109507 91.56732462 150.87834221 98.77593279 C150.8942604 105.73851267 150.8874399 112.70089601 150.8704052 119.66346741 C150.86357067 122.61380817 150.86452979 125.56398968 150.87195015 128.514328 C150.88110384 132.6426142 150.85696525 136.77007892 150.82965088 140.89828491 C150.8394397 142.71431465 150.8394397 142.71431465 150.84942627 144.56703186 C150.74822232 153.59588993 149.21688212 161.14694379 143.23370361 168.14242554 C138.02693589 172.87890457 131.55639684 174.87395394 124.67120361 175.70492554 C116.19728323 174.60645438 109.9972561 171.78107148 104.29620361 165.26742554 C100.72196897 159.63748947 99.17985916 154.54159174 99.09088135 147.86825562 C99.08098175 147.22408188 99.07108215 146.57990814 99.06088257 145.91621399 C99.02932895 143.78983214 99.00453456 141.66342796 98.97979736 139.53695679 C98.95922252 138.06150232 98.93822591 136.58605367 98.91682434 135.11061096 C98.86165836 131.22923503 98.81222499 127.34780638 98.76397705 123.46633911 C98.71372203 119.50480463 98.65805686 115.5433466 98.60284424 111.58187866 C98.49532962 103.81045905 98.39386984 96.03897582 98.29620361 88.26742554 C97.7675898 88.80064832 97.23897598 89.3338711 96.69434357 89.88325214 C83.82097261 102.86712715 70.93372235 115.8370756 58.03095245 128.79173756 C51.79155475 135.05689799 45.55691152 141.32665511 39.33331299 147.60751343 C33.90772709 153.08299308 28.47335847 158.54957572 23.02833891 164.00573272 C20.14651362 166.89406657 17.26922613 169.78661129 14.40242004 172.68985939 C11.70136989 175.42496307 8.98868814 178.14797495 6.26681519 180.86235237 C5.27243115 181.85810676 4.28229204 182.85812219 3.29689026 183.86276627 C-4.08235789 191.37892162 -9.68545705 195.64124183 -20.57879639 195.82992554 C-27.63656084 195.64856971 -32.43354722 193.99514905 -37.70379639 189.26742554 C-44.09908455 181.91284415 -46.06870198 174.8247829 -45.48114014 165.20883179 C-43.14804293 156.38057952 -36.08159523 150.23728306 -29.78875732 144.02767944 C-28.78407577 143.02548557 -27.78006573 142.02261813 -26.77667236 141.01913452 C-24.06869067 138.31454297 -21.35166638 135.61920555 -18.63299084 132.92536974 C-15.78502698 130.09998659 -12.94604551 127.26560783 -10.10620117 124.43206787 C-4.73366667 119.07398175 0.64604806 113.7231704 6.02878165 108.37533224 C15.6829904 98.78323218 25.32486076 89.17873627 34.96410537 79.57160127 C38.34698067 76.20056894 41.733005 72.83274026 45.12168169 69.46754003 C47.22311621 67.37990226 49.32258735 65.29029795 51.4216156 63.20024109 C52.39751885 62.22941873 53.37429732 61.25947529 54.35199738 60.29046249 C55.68269668 58.97140144 57.01008429 57.64900194 58.33728027 56.32641602 C59.08204746 55.58646708 59.82681465 54.84651814 60.59415054 54.0841465 C62.36544983 52.36656746 62.36544983 52.36656746 63.29620361 50.26742554 C62.43700317 50.27630798 61.57780273 50.28519043 60.69256592 50.29434204 C52.57180174 50.37468854 44.45117222 50.43549154 36.33010101 50.47467422 C32.1555426 50.49549616 27.98131428 50.52371405 23.8069458 50.56918335 C19.77391848 50.61283519 15.74120747 50.63660317 11.70796204 50.64693451 C10.17384364 50.65429139 8.63974139 50.66865746 7.10575867 50.69034576 C-2.28791549 50.81780486 -9.47195967 50.75847121 -16.91082764 44.37289429 C-22.43370861 37.77499999 -25.45448249 32.02006087 -25.17645264 23.24398804 C-24.00817872 15.88675891 -20.54350457 9.24547594 -14.64129639 4.64242554 C-9.93211248 1.46444867 -5.69317735 0.01934068 0 0 Z " fill="#FEFEFE" transform="translate(113.70379638671875,69.73257446289063)"/>
<path d="M0 0 C10.63457764 7.79089937 17.05179724 19.28450891 19.125 32.25 C20.51720598 46.85343042 18.02834323 60.24894979 9.125 72.25 C2.06781457 80.69812446 -7.26062166 86.09996084 -18.28344727 87.5715332 C-20.75983958 87.72195776 -23.20667168 87.76875772 -25.6875 87.75 C-26.56116211 87.74500488 -27.43482422 87.74000977 -28.33496094 87.73486328 C-40.02588295 87.4210566 -49.18232913 82.70421467 -57.51953125 74.6640625 C-61.72749938 70.12584877 -64.45744744 64.91723371 -66.875 59.25 C-67.24367188 58.40824219 -67.61234375 57.56648438 -67.9921875 56.69921875 C-71.51308345 42.94279784 -70.45312579 25.84603323 -63.296875 13.53515625 C-56.65764804 3.35201761 -47.86058642 -3.27206693 -36.0234375 -6.20703125 C-23.37436755 -8.38844654 -11.00475748 -6.80361696 0 0 Z " fill="#FEFDFB" transform="translate(598.875,57.75)"/>
<path d="M0 0 C1.12591553 0.00523682 2.25183105 0.01047363 3.41186523 0.01586914 C4.62680664 0.0190918 5.84174805 0.02231445 7.09350586 0.02563477 C8.37290039 0.03401367 9.65229492 0.04239258 10.97045898 0.05102539 C12.2537207 0.05553711 13.53698242 0.06004883 14.85913086 0.06469727 C18.04211921 0.07652994 21.22501661 0.09301471 24.40795898 0.11352539 C26.79044533 4.60445314 28.54990058 9.15381612 30.11499023 13.97680664 C30.36286789 14.72705612 30.61074554 15.4773056 30.86613464 16.25028992 C31.65522636 18.64080596 32.43820538 21.03326392 33.22045898 23.42602539 C34.24533636 26.54793464 35.27299548 29.66891713 36.30249023 32.78930664 C36.68112717 33.93823898 36.68112717 33.93823898 37.06741333 35.11038208 C39.73017266 43.15299131 42.55521959 51.13666813 45.40795898 59.11352539 C48.39152854 51.96868733 50.90401587 44.74911722 53.22045898 37.36352539 C53.56085205 36.29038086 53.90124512 35.21723633 54.25195312 34.11157227 C55.65473418 29.68659214 57.04794316 25.25862776 58.44018555 20.83032227 C59.09789757 18.73916803 59.75662604 16.64833313 60.41650391 14.55786133 C61.02646847 12.62457022 61.63349787 10.6903501 62.23730469 8.75512695 C62.50889404 7.89371094 62.7804834 7.03229492 63.06030273 6.14477539 C63.41596313 5.00878906 63.41596313 5.00878906 63.77880859 3.84985352 C64.40795898 2.11352539 64.40795898 2.11352539 65.40795898 1.11352539 C74.64795898 1.11352539 83.88795898 1.11352539 93.40795898 1.11352539 C93.40795898 30.81352539 93.40795898 60.51352539 93.40795898 91.11352539 C87.46795898 91.11352539 81.52795898 91.11352539 75.40795898 91.11352539 C73.6774129 89.3829793 74.2383127 87.03549286 74.20263672 84.67578125 C74.17271889 82.93408913 74.17271889 82.93408913 74.14219666 81.1572113 C74.12548416 79.89369339 74.10877167 78.63017548 74.09155273 77.32836914 C74.07077164 76.04241348 74.04999054 74.75645782 74.02857971 73.43153381 C73.97329722 70.00716635 73.92391537 66.58273789 73.87573242 63.15826416 C73.82556234 59.66608225 73.76985288 56.17398929 73.71459961 52.68188477 C73.60694259 45.82584206 73.5055145 38.96971906 73.40795898 32.11352539 C73.15961807 32.8379332 72.91127716 33.562341 72.65541077 34.30870056 C70.31877011 41.12297008 67.97934066 47.9362725 65.63674259 54.74849606 C64.43238263 58.25107106 63.22911892 61.75401479 62.02832031 65.2578125 C60.87025626 68.63678603 59.7093653 72.01477582 58.54647636 75.39209175 C58.10248638 76.68318343 57.6595302 77.97463107 57.2176075 79.26643181 C56.60025288 81.070477 55.97893682 82.87316511 55.35742188 84.67578125 C55.00434464 85.70392441 54.6512674 86.73206757 54.28749084 87.79136658 C53.40795898 90.11352539 53.40795898 90.11352539 52.40795898 91.11352539 C49.87746496 91.18666106 47.37491062 91.20600066 44.84545898 91.17602539 C43.77908203 91.16925781 43.77908203 91.16925781 42.69116211 91.16235352 C40.93005885 91.15053403 39.16899863 91.13259802 37.40795898 91.11352539 C35.3790036 85.46259479 33.35278154 79.81069353 31.32885742 74.15795898 C30.64304569 72.24364136 29.95654633 70.32956992 29.26928711 68.41577148 C28.26933142 65.63080716 27.27203266 62.84490223 26.27514648 60.05883789 C25.97800751 59.2330423 25.68086853 58.4072467 25.37472534 57.556427 C22.24168358 48.78485709 19.35600789 39.9576721 16.40795898 31.11352539 C16.07795898 50.58352539 15.74795898 70.05352539 15.40795898 90.11352539 C9.13795898 90.11352539 2.86795898 90.11352539 -3.59204102 90.11352539 C-3.61459102 78.5266379 -3.63295551 66.93976487 -3.64385319 55.35286045 C-3.64908227 49.97318777 -3.65618037 44.59353082 -3.66748047 39.21386719 C-3.67830846 34.02677696 -3.68431766 28.8397019 -3.68691826 23.65260124 C-3.68877267 21.66896259 -3.69239358 19.68532481 -3.69777107 17.70169258 C-3.70498034 14.93343403 -3.70603201 12.16523901 -3.70556641 9.39697266 C-3.70916168 8.5683522 -3.71275696 7.73973175 -3.71646118 6.88600159 C-3.70414113 0.1622328 -3.70414113 0.1622328 0 0 Z " fill="#FEFBF9" transform="translate(532.592041015625,170.886474609375)"/>
<path d="M0 0 C2.30377809 1.44168777 4.12332455 3.05706359 5.84765625 5.15625 C6.17765625 3.17625 6.50765625 1.19625 6.84765625 -0.84375 C12.45765625 -0.84375 18.06765625 -0.84375 23.84765625 -0.84375 C23.93836488 7.84962553 24.0116057 16.54268191 24.05490494 25.2364254 C24.07569629 29.27417085 24.10385698 33.3115731 24.14941406 37.34912109 C24.19317671 41.25248162 24.21685677 45.155514 24.22716522 49.0591011 C24.2345025 50.54132877 24.24882926 52.0235404 24.27057648 53.50562668 C24.41007745 63.41531221 24.01832283 72.10754835 17.47265625 80.03125 C7.40912455 88.17791852 -2.26718752 90.40004491 -15.15234375 89.15625 C-22.8524377 87.65192701 -30.13129244 85.50418574 -35.15234375 79.15625 C-37.36264519 75.47773389 -38.15234375 72.50916919 -38.15234375 68.15625 C-35.23345227 67.99408936 -32.3235515 67.87533798 -29.40234375 67.78125 C-28.57734375 67.73097656 -27.75234375 67.68070312 -26.90234375 67.62890625 C-24.51258119 67.57108941 -22.47670872 67.58814719 -20.15234375 68.15625 C-17.69921875 71.1171875 -17.69921875 71.1171875 -16.15234375 74.15625 C-13.47578574 75.49452901 -11.32800323 75.36203556 -8.33984375 75.40625 C-7.30214844 75.43203125 -6.26445313 75.4578125 -5.1953125 75.484375 C-1.73959683 75.11174327 0.06592431 74.20106699 2.84765625 72.15625 C6.89913835 66.70770511 6.13055034 60.6313813 5.84765625 54.15625 C5.19410156 54.77113281 5.19410156 54.77113281 4.52734375 55.3984375 C3.93179688 55.93726563 3.33625 56.47609375 2.72265625 57.03125 C2.14257812 57.56492188 1.5625 58.09859375 0.96484375 58.6484375 C-5.56002284 63.29529821 -13.49986127 62.83997696 -21.15234375 62.15625 C-28.73072598 60.24043497 -33.41656984 54.44148878 -37.4765625 48.08203125 C-40.29606467 42.41334794 -40.52783767 36.80940782 -40.58984375 30.59375 C-40.60007568 29.80250732 -40.61030762 29.01126465 -40.62084961 28.19604492 C-40.4887228 19.27887092 -37.95231679 11.04001309 -31.5859375 4.5625 C-22.45707876 -3.76988113 -11.1598414 -5.67106278 0 0 Z " fill="#FEFDFB" transform="translate(849.15234375,78.84375)"/>
<path d="M0 0 C6.77751005 6.59699526 10.51585125 15.1364952 10.93164062 24.47802734 C10.95919782 35.45727225 8.97834867 44.75281767 1.17578125 52.90625 C-8.01963068 61.11310851 -17.79359444 62.45584296 -29.73974609 61.81591797 C-37.93192427 61.03788987 -44.32294716 56.58387984 -49.75 50.625 C-57.29466014 40.69983641 -57.5883315 30.63538194 -56.75 18.625 C-55.5301841 10.50767964 -50.79035086 3.63162615 -44.24609375 -1.23828125 C-31.24874086 -9.35436301 -12.60845517 -8.99810457 0 0 Z " fill="#FEFCFB" transform="translate(690.75,201.375)"/>
<path d="M0 0 C3.53413 3.62474872 4.67753616 6.22279888 4.74047852 11.26513672 C4.76544151 12.67712845 4.76544151 12.67712845 4.79090881 14.11764526 C4.79932297 15.1281192 4.80773712 16.13859314 4.81640625 17.1796875 C4.83340073 18.22520782 4.8503952 19.27072815 4.86790466 20.34793091 C4.92102052 23.69022579 4.96130153 27.03250955 5 30.375 C5.04403095 33.71028402 5.09086249 37.04547538 5.14280701 40.38064575 C5.17457118 42.45518026 5.20151982 44.52979558 5.22303772 46.60446167 C5.23652756 47.55209381 5.2500174 48.49972595 5.26391602 49.47607422 C5.27342789 50.30340057 5.28293976 51.13072693 5.29273987 51.98312378 C5.45722137 54.84288618 5.96658097 57.67448581 6.4375 60.5 C0.4975 60.5 -5.4425 60.5 -11.5625 60.5 C-11.8925 58.85 -12.2225 57.2 -12.5625 55.5 C-13.80966797 56.13228516 -13.80966797 56.13228516 -15.08203125 56.77734375 C-16.16871094 57.32519531 -17.25539063 57.87304688 -18.375 58.4375 C-19.45394531 58.98277344 -20.53289063 59.52804688 -21.64453125 60.08984375 C-28.75493528 63.5260631 -36.92859394 63.80481039 -44.53125 61.6640625 C-49.50846822 59.43031095 -53.19143937 56.73863479 -55.7890625 51.875 C-57.76862858 45.79633246 -57.10375223 39.73717588 -55.625 33.625 C-51.84268428 27.8942186 -47.44136998 25.24139123 -40.80078125 23.53125 C-36.74259959 22.71395699 -32.65869237 22.09182168 -28.5625 21.5 C-26.45658599 21.17789032 -24.35209434 20.84616162 -22.25 20.5 C-21.40824219 20.37625 -20.56648437 20.2525 -19.69921875 20.125 C-17.18264166 19.3888897 -16.13765036 18.58019857 -14.5625 16.5 C-14.1598874 13.27909921 -13.9350851 11.3664301 -15.875 8.6875 C-19.72073265 5.98124369 -24.04133144 6.02222485 -28.5625 6.5 C-33.72690505 8.56576202 -33.84282673 10.06065346 -36.5625 15.5 C-42.5025 15.5 -48.4425 15.5 -54.5625 15.5 C-53.53304628 7.26437025 -52.27639769 3.30261914 -45.92578125 -1.8203125 C-33.16122478 -9.85394944 -11.89064121 -9.18822275 0 0 Z " fill="#FEFCFA" transform="translate(725.5625,82.5)"/>
<path d="M0 0 C6.62168165 5.4087381 11.24375514 11.9525853 12.77734375 20.45703125 C12.77734375 24.74703125 12.77734375 29.03703125 12.77734375 33.45703125 C-2.40265625 33.45703125 -17.58265625 33.45703125 -33.22265625 33.45703125 C-31.64545095 42.1793299 -31.64545095 42.1793299 -26.22265625 47.45703125 C-22.49986982 49.31842446 -18.28473466 48.89521464 -14.22265625 48.45703125 C-9.70951355 46.95265035 -6.88304146 45.44760906 -4.22265625 41.45703125 C-1.43412735 41.23595338 1.12387556 41.1759559 3.90234375 41.26953125 C5.03349609 41.28983398 5.03349609 41.28983398 6.1875 41.31054688 C8.05108502 41.3459314 9.91430353 41.39973958 11.77734375 41.45703125 C8.85148878 50.65622592 3.93607375 56.46496785 -4.34765625 61.26953125 C-12.82954483 64.77292001 -23.56509908 64.87154015 -32.1015625 61.48828125 C-41.53745135 56.90066678 -47.20982706 51.01660028 -51.09765625 41.20703125 C-54.05062037 31.13531435 -52.86174473 20.24999641 -47.93359375 11.05078125 C-42.79657093 2.80956817 -36.45610156 -2.83957035 -26.8671875 -5.09765625 C-17.00501016 -6.75834786 -8.30246808 -5.76357626 0 0 Z " fill="#FEFBF9" transform="translate(932.22265625,81.54296875)"/>
<path d="M0 0 C6.86288608 5.39656015 11.15923299 12.19402042 13.23046875 20.75390625 C13.23046875 25.04390625 13.23046875 29.33390625 13.23046875 33.75390625 C-2.27953125 33.75390625 -17.78953125 33.75390625 -33.76953125 33.75390625 C-30.74336203 43.71364471 -30.74336203 43.71364471 -27.76953125 47.44140625 C-21.81399549 50.04695315 -15.26281233 49.62874172 -9.20703125 47.50390625 C-6.68597774 45.96131929 -6.68597774 45.96131929 -5.62890625 43.66015625 C-3.76953125 41.75390625 -3.76953125 41.75390625 0.0234375 41.36328125 C1.48879106 41.38980349 2.95388426 41.43741508 4.41796875 41.50390625 C5.16755859 41.52195313 5.91714844 41.54 6.68945312 41.55859375 C8.53700585 41.60566516 10.38390034 41.67740859 12.23046875 41.75390625 C10.78486589 48.88335672 6.75195677 55.1182667 0.79296875 59.25390625 C-8.08156988 64.87608173 -19.67215435 65.3073295 -29.75 63.1015625 C-38.15485278 60.06539088 -43.88961433 54.90230773 -48.20703125 47.12890625 C-52.71444086 37.27892667 -52.99948192 26.07870582 -49.76953125 15.75390625 C-45.59053746 6.93415141 -39.86444417 0.67286775 -30.83203125 -3.12109375 C-20.55076622 -6.06114354 -9.06861436 -5.91312071 0 0 Z " fill="#FEFCFB" transform="translate(827.76953125,199.24609375)"/>
<path d="M0 0 C6.27 0 12.54 0 19 0 C23.62 13.53 28.24 27.06 33 41 C34.9935996 38.00960059 35.93650139 35.54879999 37.05859375 32.15234375 C37.44466797 30.98896484 37.83074219 29.82558594 38.22851562 28.62695312 C38.82696289 26.80067383 38.82696289 26.80067383 39.4375 24.9375 C40.03014648 23.15182617 40.03014648 23.15182617 40.63476562 21.33007812 C42.66665728 15.18030955 44.6290274 9.0235973 46.40649414 2.79516602 C47 1 47 1 48 0 C49.34267413 -0.08631874 50.68974322 -0.10706473 52.03515625 -0.09765625 C52.84404297 -0.09443359 53.65292969 -0.09121094 54.48632812 -0.08789062 C55.33646484 -0.07951172 56.18660156 -0.07113281 57.0625 -0.0625 C57.91650391 -0.05798828 58.77050781 -0.05347656 59.65039062 -0.04882812 C61.76695663 -0.03700373 63.88348685 -0.01906769 66 0 C65.25002596 4.76743781 63.60576724 9.10871716 61.9375 13.61328125 C61.63017441 14.45193726 61.32284882 15.29059326 61.00621033 16.15466309 C60.00799157 18.87537571 59.00432715 21.59403687 58 24.3125 C57.31177981 26.18117829 56.62371061 28.0499122 55.93579102 29.91870117 C54.57821179 33.6042307 53.21801675 37.2887804 51.85595703 40.97265625 C50.29864463 45.18640914 48.75440404 49.40473198 47.21484375 53.625 C36.82799824 81.96153248 36.82799824 81.96153248 28.13671875 87.10205078 C25.66818761 88.13944309 23.90420361 88.22954107 21.234375 88.1953125 C20.34492187 88.18886719 19.45546875 88.18242187 18.5390625 88.17578125 C17.15847656 88.15064453 17.15847656 88.15064453 15.75 88.125 C14.34621094 88.11146484 14.34621094 88.11146484 12.9140625 88.09765625 C10.60926511 88.07413791 8.30459967 88.03826826 6 88 C6 83.05 6 78.1 6 73 C9.28776042 72.83723958 12.57552083 72.67447917 15.86328125 72.51171875 C18.90521834 72.20510718 18.90521834 72.20510718 20.91796875 70.89453125 C22.65637778 67.85074649 22.59444899 65.34875347 22 62 C20.62593529 57.55385828 18.9109921 53.25820495 17.1875 48.9375 C16.43852607 47.01877678 15.69419626 45.09829022 14.94993591 43.17773438 C14.43283047 41.84421512 13.91438928 40.51121311 13.39466858 39.17871094 C10.70255014 32.27079741 8.10809096 25.32795285 5.54800415 18.37014771 C4.82121628 16.39864401 4.08786645 14.4296636 3.35424805 12.46069336 C2.9137915 11.26452393 2.47333496 10.06835449 2.01953125 8.8359375 C1.62870361 7.77938965 1.23787598 6.7228418 0.83520508 5.63427734 C0 3 0 3 0 0 Z " fill="#FEFCF9" transform="translate(840,196)"/>
<path d="M0 0 C5.43753282 3.35708548 8.26596367 8.18116053 9.95187378 14.24751282 C10.8185883 18.73339337 10.6156773 23.28829352 10.5703125 27.83984375 C10.5674826 28.91754532 10.56465271 29.99524689 10.56173706 31.10560608 C10.55059193 34.52885299 10.52549756 37.95183291 10.5 41.375 C10.48996289 43.70377225 10.48083832 46.03254862 10.47265625 48.36132812 C10.45067111 54.05348741 10.41618018 59.74544852 10.375 65.4375 C4.435 65.4375 -1.505 65.4375 -7.625 65.4375 C-7.67398438 62.48683594 -7.72296875 59.53617187 -7.7734375 56.49609375 C-7.8275213 53.62324156 -7.8847997 50.75046948 -7.94238281 47.87768555 C-7.98055261 45.888489 -8.01542598 43.89922626 -8.046875 41.90991211 C-8.09278697 39.0425661 -8.15073747 36.17567112 -8.2109375 33.30859375 C-8.22248871 32.42602402 -8.23403992 31.54345428 -8.24594116 30.63414001 C-8.3661185 21.91055591 -8.3661185 21.91055591 -12.44140625 14.52734375 C-16.38775197 12.55770071 -20.33241794 12.80439633 -24.625 13.4375 C-28.28504395 15.57252564 -30.01321196 17.58294945 -31.625 21.4375 C-31.9473471 23.61453729 -31.9473471 23.61453729 -31.94384766 25.93066406 C-31.96371735 26.81127502 -31.98358704 27.69188599 -32.00405884 28.59918213 C-32.02138565 30.01188385 -32.02138565 30.01188385 -32.0390625 31.453125 C-32.05842865 32.42409119 -32.0777948 33.39505737 -32.0977478 34.39544678 C-32.15746509 37.49270886 -32.2038978 40.59000826 -32.25 43.6875 C-32.28818698 45.78907859 -32.32723914 47.89064165 -32.3671875 49.9921875 C-32.46478667 55.1405436 -32.54441804 60.28873685 -32.625 65.4375 C-38.895 65.4375 -45.165 65.4375 -51.625 65.4375 C-51.625 43.6575 -51.625 21.8775 -51.625 -0.5625 C-45.685 -0.5625 -39.745 -0.5625 -33.625 -0.5625 C-33.295 1.7475 -32.965 4.0575 -32.625 6.4375 C-32.18929687 6.02757812 -31.75359375 5.61765625 -31.3046875 5.1953125 C-30.70914063 4.65648437 -30.11359375 4.11765625 -29.5 3.5625 C-28.91992188 3.02882812 -28.33984375 2.49515625 -27.7421875 1.9453125 C-20.46031562 -3.24067006 -8.06754091 -3.58728441 0 0 Z " fill="#FEFAF6" transform="translate(759.625,196.5625)"/>
<path d="M0 0 C4.0960072 2.43505749 6.26650938 5.35805914 8.24169922 9.72705078 C9.5220695 14.83373401 9.37412623 19.76402174 9.32421875 25.0078125 C9.32138885 26.13132111 9.31855896 27.25482971 9.31564331 28.41238403 C9.30447928 31.98857427 9.27938126 35.5645109 9.25390625 39.140625 C9.24387158 41.57030887 9.23474658 43.99999669 9.2265625 46.4296875 C9.20455225 52.3750972 9.17004805 58.32031815 9.12890625 64.265625 C3.18890625 64.265625 -2.75109375 64.265625 -8.87109375 64.265625 C-8.88567627 62.92862549 -8.90025879 61.59162598 -8.9152832 60.21411133 C-8.97331499 55.24720701 -9.0505481 50.28075371 -9.13354492 45.31420898 C-9.16677121 43.16584602 -9.19481028 41.01739625 -9.2175293 38.86889648 C-9.25111706 35.77810724 -9.30343596 32.68811188 -9.359375 29.59765625 C-9.36576492 28.63914261 -9.37215485 27.68062897 -9.3787384 26.69306946 C-9.48679141 21.77708351 -9.60279487 18.21711918 -12.87109375 14.265625 C-16.51815354 11.97318742 -19.8071708 11.99711849 -23.94140625 12.66015625 C-27.92173851 13.90904593 -30.08083629 16.78010133 -31.97802734 20.34643555 C-33.24130461 24.4757429 -33.22817104 28.42568792 -33.28515625 32.72265625 C-33.3045224 33.62561935 -33.32388855 34.52858246 -33.34384155 35.45890808 C-33.40343457 38.33188547 -33.44994144 41.20490337 -33.49609375 44.078125 C-33.5342922 46.03061605 -33.57334502 47.98309059 -33.61328125 49.93554688 C-33.71072155 54.71215175 -33.79045076 59.488589 -33.87109375 64.265625 C-39.81109375 64.265625 -45.75109375 64.265625 -51.87109375 64.265625 C-51.87109375 42.815625 -51.87109375 21.365625 -51.87109375 -0.734375 C-45.93109375 -0.734375 -39.99109375 -0.734375 -33.87109375 -0.734375 C-33.54109375 1.245625 -33.21109375 3.225625 -32.87109375 5.265625 C-32.35160156 4.85570313 -31.83210937 4.44578125 -31.296875 4.0234375 C-30.59949219 3.48460938 -29.90210938 2.94578125 -29.18359375 2.390625 C-28.49910156 1.85695313 -27.81460938 1.32328125 -27.109375 0.7734375 C-18.87018378 -4.77687282 -8.78232987 -4.0035019 0 0 Z " fill="#FEFCFA" transform="translate(791.87109375,78.734375)"/>
<path d="M0 0 C7.27565626 4.38995293 10.4969168 10.39807187 12.5625 18.4375 C12.74683594 19.06011719 12.93117188 19.68273437 13.12109375 20.32421875 C15.17732718 30.16866374 13.526126 40.02121801 8.75 48.75 C4.54543634 53.91560679 -0.02890792 58.06443981 -6.828125 58.80859375 C-19.66030923 59.02939044 -19.66030923 59.02939044 -24.796875 55.04296875 C-32.2846565 47.71563971 -35.48707246 39.98147864 -35.8125 29.5 C-35.54426743 20.41507955 -33.42345567 11.49580602 -27.4375 4.4375 C-19.95955432 -2.16746964 -9.33888782 -4.23507703 0 0 Z " fill="#FE7A03" transform="translate(584.4375,69.5625)"/>
<path d="M0 0 C1 1 1 1 1.09765625 4.59765625 C1.0909822 6.08596867 1.07902183 7.57426432 1.0625 9.0625 C1.05798828 9.82111328 1.05347656 10.57972656 1.04882812 11.36132812 C1.0370068 13.24091871 1.01907078 15.12046899 1 17 C-0.16015625 17.02126953 -0.16015625 17.02126953 -1.34375 17.04296875 C-8.04888097 17.35001064 -14.20834976 17.85041926 -19 23 C-21.77381491 28.40911168 -22.46188221 32.74696529 -22.51171875 38.77734375 C-22.52966995 39.58869278 -22.54762115 40.40004181 -22.56611633 41.23597717 C-22.61988463 43.80310008 -22.65400616 46.3700407 -22.6875 48.9375 C-22.72070276 50.68817623 -22.75519513 52.4388285 -22.79101562 54.18945312 C-22.87799751 58.45965676 -22.93834875 62.72905664 -23 67 C-28.94 67 -34.88 67 -41 67 C-41 45.55 -41 24.1 -41 2 C-35.39 2 -29.78 2 -24 2 C-23.67 4.97 -23.34 7.94 -23 11 C-22.38125 10.113125 -21.7625 9.22625 -21.125 8.3125 C-15.70607854 1.84970698 -8.24788282 -0.89976903 0 0 Z " fill="#FEFEFD" transform="translate(667,76)"/>
<path d="M0 0 C5.507434 2.01233165 8.53220022 4.98548648 11.08984375 10.23828125 C13.23603823 16.75055378 12.99751001 25.05712928 10.8125 31.5625 C8.63030511 35.70114549 6.24569759 38.8771512 2 41 C-3.32347443 41.47966313 -8.26875392 41.91862037 -13.0625 39.375 C-19.5347479 31.44127677 -19.7956846 22.87975039 -19 13 C-17.46667512 7.55003003 -14.75570902 4.12875593 -10 1 C-6.79821961 -0.60089019 -3.48231013 -0.3573266 0 0 Z " fill="#FE7A03" transform="translate(671,208)"/>
<path d="M0 0 C4.7515317 2.11179187 7.2375749 4.93362487 9.3046875 9.59765625 C11.41752761 16.89763752 10.77158516 24.4307321 7.24609375 31.15234375 C5.14881067 34.26210832 3.47616548 35.5463308 0 37 C-5.33294677 37.81562715 -9.46659936 38.05421294 -14 34.9375 C-19.18730959 27.31863904 -19.834343 21.17777299 -19 12 C-18.02556873 7.38769199 -15.68230024 3.75309769 -11.87109375 0.8828125 C-8.01655165 -0.93582323 -4.12357513 -0.70517164 0 0 Z " fill="#FE7B04" transform="translate(846,90)"/>
<path d="M0 0 C0.34693956 6.38625783 0.51424996 11.50898444 -3 17 C-7.62505025 20.51045481 -12.20736682 21.75089689 -18 21 C-23.65116279 18.69767442 -23.65116279 18.69767442 -25 16 C-25.47395935 11.81335912 -25.59696248 9.77778995 -22.98828125 6.37890625 C-19.27239937 3.42077283 -16.41996605 2.87544788 -11.8125 2.25 C-7.92092276 1.64703078 -3.7660849 0 0 0 Z " fill="#FE7C07" transform="translate(712,112)"/>
<path d="M0 0 C3.86436475 2.04155119 6.85070057 4.15388522 9 8 C9.33 9.98 9.66 11.96 10 14 C0.43 14 -9.14 14 -19 14 C-15.58333333 3.75 -15.58333333 3.75 -11 1 C-7.27400457 -0.24199848 -3.87020783 -0.53508555 0 0 Z " fill="#FE7F0C" transform="translate(813,208)"/>
<path d="M0 0 C3.61168205 2.60377078 4.81384768 4.90194115 6.6875 8.9375 C6.6875 9.9275 6.6875 10.9175 6.6875 11.9375 C-2.5525 11.9375 -11.7925 11.9375 -21.3125 11.9375 C-20.3125 4.9375 -20.3125 4.9375 -18.97265625 3.1953125 C-12.53868355 -1.36667303 -7.67864108 -2.46296035 0 0 Z " fill="#FE7B05" transform="translate(920.3125,91.0625)"/>
</svg>
