
    <svg width="64" height="64" viewBox="0 0 64 64" fill="none" xmlns="http://www.w3.org/2000/svg">
    <path d="M32 58C46.3594 58 58 46.3594 58 32C58 17.6406 46.3594 6 32 6C17.6406 6 6 17.6406 6 32C6 46.3594 17.6406 58 32 58Z" stroke="#059669" stroke-width="4" stroke-miterlimit="10" stroke-linecap="round" stroke-linejoin="round"/>
    <path d="M32 44C38.6274 44 44 38.6274 44 32C44 25.3726 38.6274 20 32 20C25.3726 20 20 25.3726 20 32C20 38.6274 25.3726 44 32 44Z" stroke="#0d9488" stroke-width="4" stroke-miterlimit="10" stroke-linecap="round" stroke-linejoin="round"/>
    <path d="M48.7402 15.2598L42.3602 21.6398" stroke="#059669" stroke-width="4" stroke-miterlimit="10" stroke-linecap="round" stroke-linejoin="round"/>
    <path d="M15.2598 48.7402L21.6398 42.3602" stroke="#059669" stroke-width="4" stroke-miterlimit="10" stroke-linecap="round" stroke-linejoin="round"/>
    </svg>
  